<?xml version="1.0" encoding="UTF-8" standalone="no"?>
<!DOCTYPE svg PUBLIC "-//W3C//DTD SVG 1.1//EN"
 "http://www.w3.org/Graphics/SVG/1.1/DTD/svg11.dtd">
<!-- Generated by graphviz version 2.40.1 (20161225.0304)
 -->
<!-- Title: %3 Pages: 1 -->
<svg width="371pt" height="170pt"
 viewBox="0.00 0.00 371.47 170.00" xmlns="http://www.w3.org/2000/svg" xmlns:xlink="http://www.w3.org/1999/xlink">
<g id="graph0" class="graph" transform="scale(1 1) rotate(0) translate(4 166)">
<title>%3</title>
<polygon fill="#ffffff" stroke="transparent" points="-4,4 -4,-166 367.4673,-166 367.4673,4 -4,4"/>
<g id="clust1" class="cluster">
<title>cluster_model</title>
<polygon fill="none" stroke="#000000" stroke-dasharray="5,2" points="158.6779,-8 158.6779,-154 272.6779,-154 272.6779,-8 158.6779,-8"/>
</g>
<!-- input -->
<g id="node1" class="node">
<title>input</title>
<ellipse fill="none" stroke="#000000" cx="61.6779" cy="-117" rx="61.8563" ry="18"/>
<text text-anchor="middle" x="61.6779" y="-112.8" font-family="Times,serif" font-size="14.00" fill="#000000">Measurements</text>
</g>
<!-- model -->
<g id="node2" class="node">
<title>model</title>
<polygon fill="#d3d3d3" stroke="#000000" points="265.1134,-146 166.2423,-146 166.2423,-88 265.1134,-88 265.1134,-146"/>
<text text-anchor="middle" x="215.6779" y="-112.8" font-family="Times,serif" font-size="14.00" fill="#000000">Estimator</text>
</g>
<!-- input&#45;&gt;model -->
<g id="edge3" class="edge">
<title>input&#45;&gt;model</title>
<path fill="none" stroke="#000000" d="M123.6388,-117C134.5576,-117 145.4764,-117 156.3951,-117"/>
<polygon fill="#000000" stroke="#000000" points="156.4226,-120.5001 166.4226,-117 156.4226,-113.5001 156.4226,-120.5001"/>
</g>
<!-- memory -->
<g id="node3" class="node">
<title>memory</title>
<ellipse fill="none" stroke="#000000" cx="215.6779" cy="-34" rx="40.6248" ry="18"/>
<text text-anchor="middle" x="215.6779" y="-29.8" font-family="Times,serif" font-size="14.00" fill="#000000">Memory</text>
</g>
<!-- model&#45;&gt;memory -->
<g id="edge1" class="edge">
<title>model&#45;&gt;memory:ne</title>
<path fill="none" stroke="#000000" d="M234.2249,-87.7465C238.3531,-78.3253 240.7727,-68.1129 237.9562,-59.5416"/>
<polygon fill="#000000" stroke="#000000" points="240.9121,-57.6669 232.6779,-51 234.9574,-61.3467 240.9121,-57.6669"/>
</g>
<!-- output -->
<g id="node4" class="node">
<title>output</title>
<ellipse fill="none" stroke="#000000" cx="335.6779" cy="-117" rx="27.5804" ry="18"/>
<text text-anchor="middle" x="335.6779" y="-112.8" font-family="Times,serif" font-size="14.00" fill="#000000">State</text>
</g>
<!-- model&#45;&gt;output -->
<g id="edge4" class="edge">
<title>model&#45;&gt;output</title>
<path fill="none" stroke="#000000" d="M264.8966,-117C275.8338,-117 286.771,-117 297.7081,-117"/>
<polygon fill="#000000" stroke="#000000" points="297.7525,-120.5001 307.7525,-117 297.7524,-113.5001 297.7525,-120.5001"/>
</g>
<!-- memory&#45;&gt;model -->
<g id="edge2" class="edge">
<title>memory:nw&#45;&gt;model</title>
<path fill="none" stroke="#000000" d="M198.6779,-51C191.3864,-58.2915 191.0294,-68.2672 193.7306,-78.2546"/>
<polygon fill="#000000" stroke="#000000" points="190.4634,-79.5127 197.1309,-87.7465 197.0533,-77.1519 190.4634,-79.5127"/>
</g>
</g>
</svg>
