<?xml version="1.0" encoding="UTF-8" standalone="no"?>
<!DOCTYPE svg PUBLIC "-//W3C//DTD SVG 1.1//EN" "http://www.w3.org/Graphics/SVG/1.1/DTD/svg11.dtd">
<!-- Created with matplotlib (http://matplotlib.org/) -->
<svg height="216pt" version="1.1" viewBox="0 0 432 216" width="432pt" xmlns="http://www.w3.org/2000/svg" xmlns:xlink="http://www.w3.org/1999/xlink">
 <defs>
  <style type="text/css">
*{stroke-linecap:butt;stroke-linejoin:round;}
  </style>
 </defs>
 <g id="figure_1">
  <g id="patch_1">
   <path d="M 0 216  L 432 216  L 432 0  L 0 0  z " style="fill:#ffffff;"/>
  </g>
  <g id="axes_1">
   <g id="patch_2">
    <path d="M 50.71 189.889714  L 411.165 189.889714  L 411.165 25.110286  L 50.71 25.110286  z " style="fill:#ffffff;"/>
   </g>
   <g id="matplotlib.axis_1">
    <g id="xtick_1">
     <g id="line2d_1">
      <path clip-path="url(#p3cd6d27cb6)" d="M 50.71 189.889714  L 50.71 25.110286  " style="fill:none;stroke:#cccccc;stroke-linecap:round;"/>
     </g>
     <g id="line2d_2"/>
     <g id="text_1">
      <!-- −0.5 -->
      <defs>
       <path d="M 10.59375 35.5  L 73.1875 35.5  L 73.1875 27.203125  L 10.59375 27.203125  z " id="DejaVuSans-2212"/>
       <path d="M 31.78125 66.40625  Q 24.171875 66.40625 20.328125 58.90625  Q 16.5 51.421875 16.5 36.375  Q 16.5 21.390625 20.328125 13.890625  Q 24.171875 6.390625 31.78125 6.390625  Q 39.453125 6.390625 43.28125 13.890625  Q 47.125 21.390625 47.125 36.375  Q 47.125 51.421875 43.28125 58.90625  Q 39.453125 66.40625 31.78125 66.40625  z M 31.78125 74.21875  Q 44.046875 74.21875 50.515625 64.515625  Q 56.984375 54.828125 56.984375 36.375  Q 56.984375 17.96875 50.515625 8.265625  Q 44.046875 -1.421875 31.78125 -1.421875  Q 19.53125 -1.421875 13.0625 8.265625  Q 6.59375 17.96875 6.59375 36.375  Q 6.59375 54.828125 13.0625 64.515625  Q 19.53125 74.21875 31.78125 74.21875  z " id="DejaVuSans-30"/>
       <path d="M 10.6875 12.40625  L 21 12.40625  L 21 0  L 10.6875 0  z " id="DejaVuSans-2e"/>
       <path d="M 10.796875 72.90625  L 49.515625 72.90625  L 49.515625 64.59375  L 19.828125 64.59375  L 19.828125 46.734375  Q 21.96875 47.46875 24.109375 47.828125  Q 26.265625 48.1875 28.421875 48.1875  Q 40.625 48.1875 47.75 41.5  Q 54.890625 34.8125 54.890625 23.390625  Q 54.890625 11.625 47.5625 5.09375  Q 40.234375 -1.421875 26.90625 -1.421875  Q 22.3125 -1.421875 17.546875 -0.640625  Q 12.796875 0.140625 7.71875 1.703125  L 7.71875 11.625  Q 12.109375 9.234375 16.796875 8.0625  Q 21.484375 6.890625 26.703125 6.890625  Q 35.15625 6.890625 40.078125 11.328125  Q 45.015625 15.765625 45.015625 23.390625  Q 45.015625 31 40.078125 35.4375  Q 35.15625 39.890625 26.703125 39.890625  Q 22.75 39.890625 18.8125 39.015625  Q 14.890625 38.140625 10.796875 36.28125  z " id="DejaVuSans-35"/>
      </defs>
      <g style="fill:#262626;" transform="translate(38.568594 204.488152)scale(0.1 -0.1)">
       <use xlink:href="#DejaVuSans-2212"/>
       <use x="83.789062" xlink:href="#DejaVuSans-30"/>
       <use x="147.412109" xlink:href="#DejaVuSans-2e"/>
       <use x="179.199219" xlink:href="#DejaVuSans-35"/>
      </g>
     </g>
    </g>
    <g id="xtick_2">
     <g id="line2d_3">
      <path clip-path="url(#p3cd6d27cb6)" d="M 102.203571 189.889714  L 102.203571 25.110286  " style="fill:none;stroke:#cccccc;stroke-linecap:round;"/>
     </g>
     <g id="line2d_4"/>
     <g id="text_2">
      <!-- 0.0 -->
      <g style="fill:#262626;" transform="translate(94.252009 204.488152)scale(0.1 -0.1)">
       <use xlink:href="#DejaVuSans-30"/>
       <use x="63.623047" xlink:href="#DejaVuSans-2e"/>
       <use x="95.410156" xlink:href="#DejaVuSans-30"/>
      </g>
     </g>
    </g>
    <g id="xtick_3">
     <g id="line2d_5">
      <path clip-path="url(#p3cd6d27cb6)" d="M 153.697143 189.889714  L 153.697143 25.110286  " style="fill:none;stroke:#cccccc;stroke-linecap:round;"/>
     </g>
     <g id="line2d_6"/>
     <g id="text_3">
      <!-- 0.5 -->
      <g style="fill:#262626;" transform="translate(145.74558 204.488152)scale(0.1 -0.1)">
       <use xlink:href="#DejaVuSans-30"/>
       <use x="63.623047" xlink:href="#DejaVuSans-2e"/>
       <use x="95.410156" xlink:href="#DejaVuSans-35"/>
      </g>
     </g>
    </g>
    <g id="xtick_4">
     <g id="line2d_7">
      <path clip-path="url(#p3cd6d27cb6)" d="M 205.190714 189.889714  L 205.190714 25.110286  " style="fill:none;stroke:#cccccc;stroke-linecap:round;"/>
     </g>
     <g id="line2d_8"/>
     <g id="text_4">
      <!-- 1.0 -->
      <defs>
       <path d="M 12.40625 8.296875  L 28.515625 8.296875  L 28.515625 63.921875  L 10.984375 60.40625  L 10.984375 69.390625  L 28.421875 72.90625  L 38.28125 72.90625  L 38.28125 8.296875  L 54.390625 8.296875  L 54.390625 0  L 12.40625 0  z " id="DejaVuSans-31"/>
      </defs>
      <g style="fill:#262626;" transform="translate(197.239152 204.488152)scale(0.1 -0.1)">
       <use xlink:href="#DejaVuSans-31"/>
       <use x="63.623047" xlink:href="#DejaVuSans-2e"/>
       <use x="95.410156" xlink:href="#DejaVuSans-30"/>
      </g>
     </g>
    </g>
    <g id="xtick_5">
     <g id="line2d_9">
      <path clip-path="url(#p3cd6d27cb6)" d="M 256.684286 189.889714  L 256.684286 25.110286  " style="fill:none;stroke:#cccccc;stroke-linecap:round;"/>
     </g>
     <g id="line2d_10"/>
     <g id="text_5">
      <!-- 1.5 -->
      <g style="fill:#262626;" transform="translate(248.732723 204.488152)scale(0.1 -0.1)">
       <use xlink:href="#DejaVuSans-31"/>
       <use x="63.623047" xlink:href="#DejaVuSans-2e"/>
       <use x="95.410156" xlink:href="#DejaVuSans-35"/>
      </g>
     </g>
    </g>
    <g id="xtick_6">
     <g id="line2d_11">
      <path clip-path="url(#p3cd6d27cb6)" d="M 308.177857 189.889714  L 308.177857 25.110286  " style="fill:none;stroke:#cccccc;stroke-linecap:round;"/>
     </g>
     <g id="line2d_12"/>
     <g id="text_6">
      <!-- 2.0 -->
      <defs>
       <path d="M 19.1875 8.296875  L 53.609375 8.296875  L 53.609375 0  L 7.328125 0  L 7.328125 8.296875  Q 12.9375 14.109375 22.625 23.890625  Q 32.328125 33.6875 34.8125 36.53125  Q 39.546875 41.84375 41.421875 45.53125  Q 43.3125 49.21875 43.3125 52.78125  Q 43.3125 58.59375 39.234375 62.25  Q 35.15625 65.921875 28.609375 65.921875  Q 23.96875 65.921875 18.8125 64.3125  Q 13.671875 62.703125 7.8125 59.421875  L 7.8125 69.390625  Q 13.765625 71.78125 18.9375 73  Q 24.125 74.21875 28.421875 74.21875  Q 39.75 74.21875 46.484375 68.546875  Q 53.21875 62.890625 53.21875 53.421875  Q 53.21875 48.921875 51.53125 44.890625  Q 49.859375 40.875 45.40625 35.40625  Q 44.1875 33.984375 37.640625 27.21875  Q 31.109375 20.453125 19.1875 8.296875  z " id="DejaVuSans-32"/>
      </defs>
      <g style="fill:#262626;" transform="translate(300.226295 204.488152)scale(0.1 -0.1)">
       <use xlink:href="#DejaVuSans-32"/>
       <use x="63.623047" xlink:href="#DejaVuSans-2e"/>
       <use x="95.410156" xlink:href="#DejaVuSans-30"/>
      </g>
     </g>
    </g>
    <g id="xtick_7">
     <g id="line2d_13">
      <path clip-path="url(#p3cd6d27cb6)" d="M 359.671429 189.889714  L 359.671429 25.110286  " style="fill:none;stroke:#cccccc;stroke-linecap:round;"/>
     </g>
     <g id="line2d_14"/>
     <g id="text_7">
      <!-- 2.5 -->
      <g style="fill:#262626;" transform="translate(351.719866 204.488152)scale(0.1 -0.1)">
       <use xlink:href="#DejaVuSans-32"/>
       <use x="63.623047" xlink:href="#DejaVuSans-2e"/>
       <use x="95.410156" xlink:href="#DejaVuSans-35"/>
      </g>
     </g>
    </g>
    <g id="xtick_8">
     <g id="line2d_15">
      <path clip-path="url(#p3cd6d27cb6)" d="M 411.165 189.889714  L 411.165 25.110286  " style="fill:none;stroke:#cccccc;stroke-linecap:round;"/>
     </g>
     <g id="line2d_16"/>
     <g id="text_8">
      <!-- 3.0 -->
      <defs>
       <path d="M 40.578125 39.3125  Q 47.65625 37.796875 51.625 33  Q 55.609375 28.21875 55.609375 21.1875  Q 55.609375 10.40625 48.1875 4.484375  Q 40.765625 -1.421875 27.09375 -1.421875  Q 22.515625 -1.421875 17.65625 -0.515625  Q 12.796875 0.390625 7.625 2.203125  L 7.625 11.71875  Q 11.71875 9.328125 16.59375 8.109375  Q 21.484375 6.890625 26.8125 6.890625  Q 36.078125 6.890625 40.9375 10.546875  Q 45.796875 14.203125 45.796875 21.1875  Q 45.796875 27.640625 41.28125 31.265625  Q 36.765625 34.90625 28.71875 34.90625  L 20.21875 34.90625  L 20.21875 43.015625  L 29.109375 43.015625  Q 36.375 43.015625 40.234375 45.921875  Q 44.09375 48.828125 44.09375 54.296875  Q 44.09375 59.90625 40.109375 62.90625  Q 36.140625 65.921875 28.71875 65.921875  Q 24.65625 65.921875 20.015625 65.03125  Q 15.375 64.15625 9.8125 62.3125  L 9.8125 71.09375  Q 15.4375 72.65625 20.34375 73.4375  Q 25.25 74.21875 29.59375 74.21875  Q 40.828125 74.21875 47.359375 69.109375  Q 53.90625 64.015625 53.90625 55.328125  Q 53.90625 49.265625 50.4375 45.09375  Q 46.96875 40.921875 40.578125 39.3125  z " id="DejaVuSans-33"/>
      </defs>
      <g style="fill:#262626;" transform="translate(403.213437 204.488152)scale(0.1 -0.1)">
       <use xlink:href="#DejaVuSans-33"/>
       <use x="63.623047" xlink:href="#DejaVuSans-2e"/>
       <use x="95.410156" xlink:href="#DejaVuSans-30"/>
      </g>
     </g>
    </g>
   </g>
   <g id="matplotlib.axis_2">
    <g id="ytick_1">
     <g id="line2d_17">
      <path clip-path="url(#p3cd6d27cb6)" d="M 50.71 189.889714  L 411.165 189.889714  " style="fill:none;stroke:#cccccc;stroke-linecap:round;"/>
     </g>
     <g id="line2d_18"/>
     <g id="text_9">
      <!-- −2.2 -->
      <g style="fill:#262626;" transform="translate(19.427187 193.688933)scale(0.1 -0.1)">
       <use xlink:href="#DejaVuSans-2212"/>
       <use x="83.789062" xlink:href="#DejaVuSans-32"/>
       <use x="147.412109" xlink:href="#DejaVuSans-2e"/>
       <use x="179.199219" xlink:href="#DejaVuSans-32"/>
      </g>
     </g>
    </g>
    <g id="ytick_2">
     <g id="line2d_19">
      <path clip-path="url(#p3cd6d27cb6)" d="M 50.71 169.292286  L 411.165 169.292286  " style="fill:none;stroke:#cccccc;stroke-linecap:round;"/>
     </g>
     <g id="line2d_20"/>
     <g id="text_10">
      <!-- −2.0 -->
      <g style="fill:#262626;" transform="translate(19.427187 173.091504)scale(0.1 -0.1)">
       <use xlink:href="#DejaVuSans-2212"/>
       <use x="83.789062" xlink:href="#DejaVuSans-32"/>
       <use x="147.412109" xlink:href="#DejaVuSans-2e"/>
       <use x="179.199219" xlink:href="#DejaVuSans-30"/>
      </g>
     </g>
    </g>
    <g id="ytick_3">
     <g id="line2d_21">
      <path clip-path="url(#p3cd6d27cb6)" d="M 50.71 148.694857  L 411.165 148.694857  " style="fill:none;stroke:#cccccc;stroke-linecap:round;"/>
     </g>
     <g id="line2d_22"/>
     <g id="text_11">
      <!-- −1.8 -->
      <defs>
       <path d="M 31.78125 34.625  Q 24.75 34.625 20.71875 30.859375  Q 16.703125 27.09375 16.703125 20.515625  Q 16.703125 13.921875 20.71875 10.15625  Q 24.75 6.390625 31.78125 6.390625  Q 38.8125 6.390625 42.859375 10.171875  Q 46.921875 13.96875 46.921875 20.515625  Q 46.921875 27.09375 42.890625 30.859375  Q 38.875 34.625 31.78125 34.625  z M 21.921875 38.8125  Q 15.578125 40.375 12.03125 44.71875  Q 8.5 49.078125 8.5 55.328125  Q 8.5 64.0625 14.71875 69.140625  Q 20.953125 74.21875 31.78125 74.21875  Q 42.671875 74.21875 48.875 69.140625  Q 55.078125 64.0625 55.078125 55.328125  Q 55.078125 49.078125 51.53125 44.71875  Q 48 40.375 41.703125 38.8125  Q 48.828125 37.15625 52.796875 32.3125  Q 56.78125 27.484375 56.78125 20.515625  Q 56.78125 9.90625 50.3125 4.234375  Q 43.84375 -1.421875 31.78125 -1.421875  Q 19.734375 -1.421875 13.25 4.234375  Q 6.78125 9.90625 6.78125 20.515625  Q 6.78125 27.484375 10.78125 32.3125  Q 14.796875 37.15625 21.921875 38.8125  z M 18.3125 54.390625  Q 18.3125 48.734375 21.84375 45.5625  Q 25.390625 42.390625 31.78125 42.390625  Q 38.140625 42.390625 41.71875 45.5625  Q 45.3125 48.734375 45.3125 54.390625  Q 45.3125 60.0625 41.71875 63.234375  Q 38.140625 66.40625 31.78125 66.40625  Q 25.390625 66.40625 21.84375 63.234375  Q 18.3125 60.0625 18.3125 54.390625  z " id="DejaVuSans-38"/>
      </defs>
      <g style="fill:#262626;" transform="translate(19.427187 152.494076)scale(0.1 -0.1)">
       <use xlink:href="#DejaVuSans-2212"/>
       <use x="83.789062" xlink:href="#DejaVuSans-31"/>
       <use x="147.412109" xlink:href="#DejaVuSans-2e"/>
       <use x="179.199219" xlink:href="#DejaVuSans-38"/>
      </g>
     </g>
    </g>
    <g id="ytick_4">
     <g id="line2d_23">
      <path clip-path="url(#p3cd6d27cb6)" d="M 50.71 128.097429  L 411.165 128.097429  " style="fill:none;stroke:#cccccc;stroke-linecap:round;"/>
     </g>
     <g id="line2d_24"/>
     <g id="text_12">
      <!-- −1.6 -->
      <defs>
       <path d="M 33.015625 40.375  Q 26.375 40.375 22.484375 35.828125  Q 18.609375 31.296875 18.609375 23.390625  Q 18.609375 15.53125 22.484375 10.953125  Q 26.375 6.390625 33.015625 6.390625  Q 39.65625 6.390625 43.53125 10.953125  Q 47.40625 15.53125 47.40625 23.390625  Q 47.40625 31.296875 43.53125 35.828125  Q 39.65625 40.375 33.015625 40.375  z M 52.59375 71.296875  L 52.59375 62.3125  Q 48.875 64.0625 45.09375 64.984375  Q 41.3125 65.921875 37.59375 65.921875  Q 27.828125 65.921875 22.671875 59.328125  Q 17.53125 52.734375 16.796875 39.40625  Q 19.671875 43.65625 24.015625 45.921875  Q 28.375 48.1875 33.59375 48.1875  Q 44.578125 48.1875 50.953125 41.515625  Q 57.328125 34.859375 57.328125 23.390625  Q 57.328125 12.15625 50.6875 5.359375  Q 44.046875 -1.421875 33.015625 -1.421875  Q 20.359375 -1.421875 13.671875 8.265625  Q 6.984375 17.96875 6.984375 36.375  Q 6.984375 53.65625 15.1875 63.9375  Q 23.390625 74.21875 37.203125 74.21875  Q 40.921875 74.21875 44.703125 73.484375  Q 48.484375 72.75 52.59375 71.296875  z " id="DejaVuSans-36"/>
      </defs>
      <g style="fill:#262626;" transform="translate(19.427187 131.896647)scale(0.1 -0.1)">
       <use xlink:href="#DejaVuSans-2212"/>
       <use x="83.789062" xlink:href="#DejaVuSans-31"/>
       <use x="147.412109" xlink:href="#DejaVuSans-2e"/>
       <use x="179.199219" xlink:href="#DejaVuSans-36"/>
      </g>
     </g>
    </g>
    <g id="ytick_5">
     <g id="line2d_25">
      <path clip-path="url(#p3cd6d27cb6)" d="M 50.71 107.5  L 411.165 107.5  " style="fill:none;stroke:#cccccc;stroke-linecap:round;"/>
     </g>
     <g id="line2d_26"/>
     <g id="text_13">
      <!-- −1.4 -->
      <defs>
       <path d="M 37.796875 64.3125  L 12.890625 25.390625  L 37.796875 25.390625  z M 35.203125 72.90625  L 47.609375 72.90625  L 47.609375 25.390625  L 58.015625 25.390625  L 58.015625 17.1875  L 47.609375 17.1875  L 47.609375 0  L 37.796875 0  L 37.796875 17.1875  L 4.890625 17.1875  L 4.890625 26.703125  z " id="DejaVuSans-34"/>
      </defs>
      <g style="fill:#262626;" transform="translate(19.427187 111.299219)scale(0.1 -0.1)">
       <use xlink:href="#DejaVuSans-2212"/>
       <use x="83.789062" xlink:href="#DejaVuSans-31"/>
       <use x="147.412109" xlink:href="#DejaVuSans-2e"/>
       <use x="179.199219" xlink:href="#DejaVuSans-34"/>
      </g>
     </g>
    </g>
    <g id="ytick_6">
     <g id="line2d_27">
      <path clip-path="url(#p3cd6d27cb6)" d="M 50.71 86.902571  L 411.165 86.902571  " style="fill:none;stroke:#cccccc;stroke-linecap:round;"/>
     </g>
     <g id="line2d_28"/>
     <g id="text_14">
      <!-- −1.2 -->
      <g style="fill:#262626;" transform="translate(19.427187 90.70179)scale(0.1 -0.1)">
       <use xlink:href="#DejaVuSans-2212"/>
       <use x="83.789062" xlink:href="#DejaVuSans-31"/>
       <use x="147.412109" xlink:href="#DejaVuSans-2e"/>
       <use x="179.199219" xlink:href="#DejaVuSans-32"/>
      </g>
     </g>
    </g>
    <g id="ytick_7">
     <g id="line2d_29">
      <path clip-path="url(#p3cd6d27cb6)" d="M 50.71 66.305143  L 411.165 66.305143  " style="fill:none;stroke:#cccccc;stroke-linecap:round;"/>
     </g>
     <g id="line2d_30"/>
     <g id="text_15">
      <!-- −1.0 -->
      <g style="fill:#262626;" transform="translate(19.427187 70.104362)scale(0.1 -0.1)">
       <use xlink:href="#DejaVuSans-2212"/>
       <use x="83.789062" xlink:href="#DejaVuSans-31"/>
       <use x="147.412109" xlink:href="#DejaVuSans-2e"/>
       <use x="179.199219" xlink:href="#DejaVuSans-30"/>
      </g>
     </g>
    </g>
    <g id="ytick_8">
     <g id="line2d_31">
      <path clip-path="url(#p3cd6d27cb6)" d="M 50.71 45.707714  L 411.165 45.707714  " style="fill:none;stroke:#cccccc;stroke-linecap:round;"/>
     </g>
     <g id="line2d_32"/>
     <g id="text_16">
      <!-- −0.8 -->
      <g style="fill:#262626;" transform="translate(19.427187 49.506933)scale(0.1 -0.1)">
       <use xlink:href="#DejaVuSans-2212"/>
       <use x="83.789062" xlink:href="#DejaVuSans-30"/>
       <use x="147.412109" xlink:href="#DejaVuSans-2e"/>
       <use x="179.199219" xlink:href="#DejaVuSans-38"/>
      </g>
     </g>
    </g>
    <g id="ytick_9">
     <g id="line2d_33">
      <path clip-path="url(#p3cd6d27cb6)" d="M 50.71 25.110286  L 411.165 25.110286  " style="fill:none;stroke:#cccccc;stroke-linecap:round;"/>
     </g>
     <g id="line2d_34"/>
     <g id="text_17">
      <!-- −0.6 -->
      <g style="fill:#262626;" transform="translate(19.427187 28.909504)scale(0.1 -0.1)">
       <use xlink:href="#DejaVuSans-2212"/>
       <use x="83.789062" xlink:href="#DejaVuSans-30"/>
       <use x="147.412109" xlink:href="#DejaVuSans-2e"/>
       <use x="179.199219" xlink:href="#DejaVuSans-36"/>
      </g>
     </g>
    </g>
   </g>
   <g id="Quiver_1">
    <path clip-path="url(#p3cd6d27cb6)" d="M 252.066828 71.357439  L 252.851637 75.658234  L 253.818374 74.932213  L 253.193286 80.542388  L 250.626979 75.514579  L 251.787838 75.852356  L 251.003029 71.551561  L 252.066828 71.357439  " style="fill:#1a1a1a;"/>
    <path clip-path="url(#p3cd6d27cb6)" d="M 138.750218 51.060025  L 137.035856 55.293242  L 138.241102 55.198003  L 134.70813 59.600604  L 135.234225 53.980282  L 136.033564 54.887335  L 137.747925 50.654118  L 138.750218 51.060025  " style="fill:#1a1a1a;"/>
    <path clip-path="url(#p3cd6d27cb6)" d="M 262.361839 133.362311  L 261.05503 139.337198  L 262.226949 139.040053  L 259.487105 143.97544  L 259.05777 138.3469  L 259.998638 139.106147  L 261.305446 133.13126  L 262.361839 133.362311  " style="fill:#1a1a1a;"/>
    <path clip-path="url(#p3cd6d27cb6)" d="M 221.179357 102.339661  L 221.538924 120.039366  L 222.609085 119.476832  L 221.097188 124.915486  L 219.365659 119.542722  L 220.457783 120.061329  L 220.098215 102.361625  L 221.179357 102.339661  " style="fill:#1a1a1a;"/>
    <path clip-path="url(#p3cd6d27cb6)" d="M 200.58056 133.286757  L 200.348435 136.418057  L 201.466813 135.958796  L 199.44949 141.230912  L 198.231595 135.718968  L 199.270029 136.338114  L 199.502154 133.206814  L 200.58056 133.286757  " style="fill:#1a1a1a;"/>
    <path clip-path="url(#p3cd6d27cb6)" d="M 272.657169 81.883253  L 270.655919 89.959943  L 271.835582 89.695207  L 268.960762 94.553212  L 268.68671 88.914977  L 269.606295 89.699866  L 271.607545 81.623176  L 272.657169 81.883253  " style="fill:#1a1a1a;"/>
    <path clip-path="url(#p3cd6d27cb6)" d="M 159.366234 71.603544  L 157.402597 78.450959  L 158.591109 78.229314  L 155.541464 82.97952  L 155.472706 77.335048  L 156.363129 78.15287  L 158.326766 71.305456  L 159.366234 71.603544  " style="fill:#1a1a1a;"/>
    <path clip-path="url(#p3cd6d27cb6)" d="M 97.582313 102.466613  L 96.040912 109.485751  L 97.21308 109.189593  L 94.469079 114.122671  L 94.044487 108.493771  L 94.984714 109.25381  L 96.526115 102.234672  L 97.582313 102.466613  " style="fill:#1a1a1a;"/>
    <path clip-path="url(#p3cd6d27cb6)" d="M 159.381488 153.922482  L 158.561536 159.527123  L 159.709779 159.148671  L 157.322136 164.263743  L 156.499853 158.679063  L 157.49156 159.370587  L 158.311512 153.765946  L 159.381488 153.922482  " style="fill:#1a1a1a;"/>
    <path clip-path="url(#p3cd6d27cb6)" d="M 200.545844 61.350286  L 199.581348 63.851965  L 200.784822 63.736478  L 197.326362 68.197851  L 197.757898 62.569479  L 198.572373 63.462966  L 199.53687 60.961286  L 200.545844 61.350286  " style="fill:#1a1a1a;"/>
    <path clip-path="url(#p3cd6d27cb6)" d="M 241.75416 143.700644  L 239.831962 150.117883  L 241.022997 149.910225  L 237.917721 154.624253  L 237.915322 148.979362  L 238.79607 149.807596  L 240.718268 143.390356  L 241.75416 143.700644  " style="fill:#1a1a1a;"/>
    <path clip-path="url(#p3cd6d27cb6)" d="M 190.140255 82.119605  L 185.864206 86.760025  L 187.02582 87.095195  L 182.169075 89.972141  L 184.640149 84.896849  L 185.068982 86.027243  L 189.345031 81.386823  L 190.140255 82.119605  " style="fill:#1a1a1a;"/>
    <path clip-path="url(#p3cd6d27cb6)" d="M 252.011484 30.51505  L 250.562832 33.218039  L 251.77135 33.252298  L 247.787614 37.251629  L 248.912019 31.719856  L 249.609722 32.707225  L 251.058373 30.004236  L 252.011484 30.51505  " style="fill:#1a1a1a;"/>
    <path clip-path="url(#p3cd6d27cb6)" d="M 293.212616 51.100407  L 290.470726 56.540903  L 291.679723 56.544744  L 287.797872 60.64304  L 288.78274 55.084728  L 289.505065 56.054231  L 292.246955 50.613736  L 293.212616 51.100407  " style="fill:#1a1a1a;"/>
    <path clip-path="url(#p3cd6d27cb6)" d="M 313.84405 164.301732  L 312.220591 169.585362  L 313.413066 169.386135  L 310.274521 174.078078  L 310.312053 168.433311  L 311.18692 169.267755  L 312.810379 163.984125  L 313.84405 164.301732  " style="fill:#1a1a1a;"/>
    <path clip-path="url(#p3cd6d27cb6)" d="M 128.471615 40.701981  L 126.582995 47.556417  L 127.769134 47.322406  L 124.769125 52.104115  L 124.641587 46.460665  L 125.540479 47.26917  L 127.429099 40.414734  L 128.471615 40.701981  " style="fill:#1a1a1a;"/>
    <path clip-path="url(#p3cd6d27cb6)" d="M 262.365864 40.463079  L 263.429035 46.401933  L 264.3982 45.679156  L 263.754315 51.287204  L 261.204871 46.250824  L 262.364592 46.592489  L 261.301421 40.653635  L 262.365864 40.463079  " style="fill:#1a1a1a;"/>
    <path clip-path="url(#p3cd6d27cb6)" d="M 252.040876 123.13874  L 250.253292 127.882185  L 251.455856 127.757574  L 248.03133 132.245047  L 248.420169 126.613564  L 249.241396 127.500848  L 251.028981 122.757403  L 252.040876 123.13874  " style="fill:#1a1a1a;"/>
    <path clip-path="url(#p3cd6d27cb6)" d="M 97.568815 40.724259  L 95.458995 47.268567  L 96.654099 47.08577  L 93.451274 51.734072  L 93.566494 46.090357  L 94.429793 46.936762  L 96.539613 40.392455  L 97.568815 40.724259  " style="fill:#1a1a1a;"/>
    <path clip-path="url(#p3cd6d27cb6)" d="M 97.547544 61.377063  L 95.334977 66.309911  L 96.542913 66.259135  L 92.850156 70.528601  L 93.582935 64.931474  L 94.348317 65.867357  L 96.560885 60.934509  L 97.547544 61.377063  " style="fill:#1a1a1a;"/>
    <path clip-path="url(#p3cd6d27cb6)" d="M 149.086964 112.689656  L 148.571877 119.581202  L 149.690534 119.122622  L 147.670006 124.39351  L 146.455462 118.880826  L 147.49352 119.500603  L 148.008607 112.609058  L 149.086964 112.689656  " style="fill:#1a1a1a;"/>
    <path clip-path="url(#p3cd6d27cb6)" d="M 190.282335 143.512797  L 190.535998 147.698971  L 191.58268 147.093873  L 190.290631 152.588907  L 188.344525 147.29009  L 189.456613 147.764377  L 189.20295 143.578203  L 190.282335 143.512797  " style="fill:#1a1a1a;"/>
    <path clip-path="url(#p3cd6d27cb6)" d="M 210.839101 40.766461  L 210.215527 42.261779  L 211.421689 42.178958  L 207.84356 46.544938  L 208.427514 40.930333  L 209.217468 41.84557  L 209.841042 40.350253  L 210.839101 40.766461  " style="fill:#1a1a1a;"/>
    <path clip-path="url(#p3cd6d27cb6)" d="M 107.854788 40.75954  L 106.395673 44.399371  L 107.600575 44.299877  L 104.083169 48.714925  L 104.589417 43.092781  L 105.391954 43.997006  L 106.851069 40.357174  L 107.854788 40.75954  " style="fill:#1a1a1a;"/>
    <path clip-path="url(#p3cd6d27cb6)" d="M 231.42089 112.89158  L 228.524608 118.671516  L 229.73361 118.672572  L 225.861212 122.779801  L 226.833272 117.219235  L 227.557829 118.18707  L 230.45411 112.407134  L 231.42089 112.89158  " style="fill:#1a1a1a;"/>
    <path clip-path="url(#p3cd6d27cb6)" d="M 272.656418 123.081106  L 270.755092 130.570939  L 271.936248 130.312948  L 269.033718 135.154447  L 268.791886 129.514739  L 269.706972 130.304869  L 271.608297 122.815037  L 272.656418 123.081106  " style="fill:#1a1a1a;"/>
    <path clip-path="url(#p3cd6d27cb6)" d="M 396.25477 143.490141  L 397.477155 155.366153  L 398.497477 154.717593  L 397.437548 160.262081  L 395.270432 155.04975  L 396.401473 155.476872  L 395.179088 143.600859  L 396.25477 143.490141  " style="fill:#1a1a1a;"/>
    <path clip-path="url(#p3cd6d27cb6)" d="M 118.188716 81.815584  L 117.543888 87.368292  L 118.680404 86.955958  L 116.445488 92.139581  L 115.457965 86.58174  L 116.469741 87.243553  L 117.11457 81.690845  L 118.188716 81.815584  " style="fill:#1a1a1a;"/>
    <path clip-path="url(#p3cd6d27cb6)" d="M 241.77684 174.433832  L 241.856706 179.961484  L 242.930147 179.405236  L 241.38638 184.83493  L 239.68639 179.452103  L 240.775454 179.977107  L 240.695588 174.449454  L 241.77684 174.433832  " style="fill:#1a1a1a;"/>
    <path clip-path="url(#p3cd6d27cb6)" d="M 293.269835 40.584525  L 292.940781 47.375385  L 294.047047 46.887673  L 292.165217 52.209657  L 290.806753 46.730663  L 291.860683 47.323048  L 292.189737 40.532189  L 293.269835 40.584525  " style="fill:#1a1a1a;"/>
    <path clip-path="url(#p3cd6d27cb6)" d="M 241.703068 71.181763  L 243.639308 74.496097  L 244.300278 73.48377  L 245.627085 78.970515  L 241.499157 75.12019  L 242.705601 75.04157  L 240.769361 71.727237  L 241.703068 71.181763  " style="fill:#1a1a1a;"/>
    <path clip-path="url(#p3cd6d27cb6)" d="M 262.328921 123.164951  L 259.232135 130.236957  L 260.439571 130.175437  L 256.784942 134.477585  L 257.4679 128.874161  L 258.241578 129.803198  L 261.338364 122.731192  L 262.328921 123.164951  " style="fill:#1a1a1a;"/>
    <path clip-path="url(#p3cd6d27cb6)" d="M 128.452513 71.654942  L 126.182554 77.341749  L 127.387308 77.240476  L 123.876423 81.660711  L 124.374372 76.037826  L 125.178242 76.940865  L 127.448201 71.254058  L 128.452513 71.654942  " style="fill:#1a1a1a;"/>
    <path clip-path="url(#p3cd6d27cb6)" d="M 293.241333 81.928305  L 291.786274 86.179434  L 292.984459 86.018068  L 289.698912 90.608272  L 289.915174 84.967525  L 290.763178 85.829254  L 292.218238 81.578124  L 293.241333 81.928305  " style="fill:#1a1a1a;"/>
    <path clip-path="url(#p3cd6d27cb6)" d="M 324.09893 51.119001  L 321.089217 56.554045  L 322.29715 56.604903  L 318.25885 60.54913  L 319.459141 55.033325  L 320.143214 56.030186  L 323.152927 50.595142  L 324.09893 51.119001  " style="fill:#1a1a1a;"/>
    <path clip-path="url(#p3cd6d27cb6)" d="M 190.277381 174.361692  L 190.904289 178.554652  L 191.893815 177.860011  L 191.08911 183.447251  L 188.685384 178.339718  L 189.834812 178.714554  L 189.207904 174.521594  L 190.277381 174.361692  " style="fill:#1a1a1a;"/>
    <path clip-path="url(#p3cd6d27cb6)" d="M 262.366064 153.93837  L 261.185018 160.616811  L 262.344016 160.272701  L 259.805194 165.314445  L 259.149489 159.707766  L 260.120175 160.428499  L 261.301222 153.750058  L 262.366064 153.93837  " style="fill:#1a1a1a;"/>
    <path clip-path="url(#p3cd6d27cb6)" d="M 179.938141 71.673798  L 179.289752 73.135016  L 180.497475 73.079399  L 176.821859 77.363631  L 177.5322 71.763612  L 178.301327 72.69642  L 178.949716 71.235202  L 179.938141 71.673798  " style="fill:#1a1a1a;"/>
    <path clip-path="url(#p3cd6d27cb6)" d="M 190.280583 153.898597  L 189.757849 159.069323  L 190.888114 158.640148  L 188.730461 163.856405  L 187.66047 158.31385  L 188.681968 158.960556  L 189.204702 153.789831  L 190.280583 153.898597  " style="fill:#1a1a1a;"/>
    <path clip-path="url(#p3cd6d27cb6)" d="M 169.681192 143.616675  L 169.006083 148.700514  L 170.149213 148.306887  L 167.82953 153.453134  L 166.933349 147.879836  L 167.934128 148.558164  L 168.609237 143.474325  L 169.681192 143.616675  " style="fill:#1a1a1a;"/>
    <path clip-path="url(#p3cd6d27cb6)" d="M 252.075167 92.073825  L 251.759238 99.868476  L 252.861613 99.37203  L 251.021929 104.708729  L 249.620179 99.24065  L 250.678761 99.824682  L 250.99469 92.030032  L 252.075167 92.073825  " style="fill:#1a1a1a;"/>
    <path clip-path="url(#p3cd6d27cb6)" d="M 262.372477 143.590168  L 261.924251 148.997119  L 263.046588 148.547622  L 260.983402 153.801959  L 259.813582 148.279612  L 260.846583 148.907782  L 261.294809 143.500832  L 262.372477 143.590168  " style="fill:#1a1a1a;"/>
    <path clip-path="url(#p3cd6d27cb6)" d="M 149.074906 164.263269  L 148.103565 168.517993  L 149.278146 168.231552  L 146.493384 173.141736  L 146.115424 167.509512  L 147.049324 168.277313  L 148.020665 164.022589  L 149.074906 164.263269  " style="fill:#1a1a1a;"/>
    <path clip-path="url(#p3cd6d27cb6)" d="M 272.673036 143.547483  L 272.652504 149.146367  L 273.735845 148.609653  L 272.093981 154.010494  L 270.491771 148.597757  L 271.571146 149.142401  L 271.591678 143.543517  L 272.673036 143.547483  " style="fill:#1a1a1a;"/>
    <path clip-path="url(#p3cd6d27cb6)" d="M 303.554645 40.682894  L 302.074002 46.938323  L 303.250828 46.661252  L 300.427024 51.549087  L 300.09396 45.91403  L 301.021713 46.689249  L 302.502355 40.43382  L 303.554645 40.682894  " style="fill:#1a1a1a;"/>
    <path clip-path="url(#p3cd6d27cb6)" d="M 241.758839 112.787924  L 240.386033 117.965669  L 241.569849 117.720177  L 238.616307 122.530726  L 238.434099 116.888777  L 239.340783 117.688535  L 240.713589 112.51079  L 241.758839 112.787924  " style="fill:#1a1a1a;"/>
    <path clip-path="url(#p3cd6d27cb6)" d="M 293.258302 102.464694  L 291.341214 111.34855  L 292.512299 111.048135  L 289.786238 115.991149  L 289.341198 110.363829  L 290.284181 111.120448  L 292.201269 102.236592  L 293.258302 102.464694  " style="fill:#1a1a1a;"/>
    <path clip-path="url(#p3cd6d27cb6)" d="M 282.960613 112.758551  L 281.077524 121.890692  L 282.245801 121.579538  L 279.565238 126.547373  L 279.068552 120.924375  L 280.018441 121.672305  L 281.90153 112.540163  L 282.960613 112.758551  " style="fill:#1a1a1a;"/>
    <path clip-path="url(#p3cd6d27cb6)" d="M 272.668472 61.085651  L 273.538004 67.732438  L 274.540098 67.056054  L 273.6331 72.627603  L 271.323411 67.476861  L 272.465775 67.872707  L 271.596243 61.22592  L 272.668472 61.085651  " style="fill:#1a1a1a;"/>
    <path clip-path="url(#p3cd6d27cb6)" d="M 159.384472 174.495716  L 158.730315 181.003881  L 159.860332 180.574056  L 157.705684 185.791554  L 156.632501 180.249616  L 157.654372 180.895734  L 158.308528 174.38757  L 159.384472 174.495716  " style="fill:#1a1a1a;"/>
    <path clip-path="url(#p3cd6d27cb6)" d="M 313.865448 40.506955  L 314.724878 49.506007  L 315.749942 48.864968  L 314.649267 54.401511  L 312.520541 49.173383  L 313.648411 49.608812  L 312.788981 40.60976  L 313.865448 40.506955  " style="fill:#1a1a1a;"/>
    <path clip-path="url(#p3cd6d27cb6)" d="M 262.339509 112.840242  L 259.334115 120.804894  L 260.536732 120.680796  L 257.110289 125.166806  L 257.501534 119.53549  L 258.322382 120.423125  L 261.327777 112.458473  L 262.339509 112.840242  " style="fill:#1a1a1a;"/>
    <path clip-path="url(#p3cd6d27cb6)" d="M 262.358202 102.481699  L 259.991187 111.95582  L 261.17136 111.693373  L 258.287126 116.545793  L 258.024008 110.907038  L 258.942069 111.693708  L 261.309084 102.219587  L 262.358202 102.481699  " style="fill:#1a1a1a;"/>
    <path clip-path="url(#p3cd6d27cb6)" d="M 252.068259 174.530505  L 250.81775 182.03577  L 251.973273 181.680164  L 249.484661 186.74688  L 248.773292 181.146991  L 249.75109 181.858046  L 251.001598 174.352781  L 252.068259 174.530505  " style="fill:#1a1a1a;"/>
    <path clip-path="url(#p3cd6d27cb6)" d="M 128.420782 30.47426  L 128.206165 30.944685  L 129.361632 30.903495  L 125.804184 34.963893  L 126.539082 29.615791  L 127.265315 30.515451  L 127.479932 30.045026  L 128.420782 30.47426  " style="fill:#1a1a1a;"/>
    <path clip-path="url(#p3cd6d27cb6)" d="M 272.672561 50.879811  L 272.451039 56.142314  L 273.554187 55.647589  L 271.706179 60.981411  L 270.312963 55.511152  L 271.370631 56.096835  L 271.592153 50.834332  L 272.672561 50.879811  " style="fill:#1a1a1a;"/>
    <path clip-path="url(#p3cd6d27cb6)" d="M 169.681569 133.315055  L 168.991986 138.732758  L 170.132965 138.332941  L 167.841208 143.491686  L 166.914834 137.923326  L 167.919275 138.59622  L 168.608859 133.178517  L 169.681569 133.315055  " style="fill:#1a1a1a;"/>
    <path clip-path="url(#p3cd6d27cb6)" d="M 303.560367 153.94145  L 302.042906 162.241804  L 303.203876 161.904407  L 300.63592 166.931374  L 300.012672 161.320995  L 300.979171 162.047333  L 302.496633 153.746979  L 303.560367 153.94145  " style="fill:#1a1a1a;"/>
    <path clip-path="url(#p3cd6d27cb6)" d="M 138.780709 92.15041  L 138.265402 94.932219  L 139.42716 94.597545  L 136.84743 99.61848  L 136.237332 94.006655  L 137.202126 94.735256  L 137.717433 91.953447  L 138.780709 92.15041  " style="fill:#1a1a1a;"/>
    <path clip-path="url(#p3cd6d27cb6)" d="M 282.956898 81.879088  L 280.78814 90.938861  L 281.965667 90.664783  L 279.129448 95.545424  L 278.810709 89.909539  L 279.736487 90.687113  L 281.905245 81.62734  L 282.956898 81.879088  " style="fill:#1a1a1a;"/>
    <path clip-path="url(#p3cd6d27cb6)" d="M 169.673465 71.569776  L 167.941329 79.507305  L 169.113106 79.209605  L 166.375598 84.146289  L 165.9436 78.517952  L 166.884827 79.276754  L 168.616963 71.339224  L 169.673465 71.569776  " style="fill:#1a1a1a;"/>
    <path clip-path="url(#p3cd6d27cb6)" d="M 118.185353 123.034622  L 117.033087 130.140015  L 118.187058 129.779406  L 115.720421 134.856856  L 114.984797 129.260102  L 115.965667 129.966914  L 117.117933 122.861521  L 118.185353 123.034622  " style="fill:#1a1a1a;"/>
    <path clip-path="url(#p3cd6d27cb6)" d="M 221.104599 112.923866  L 218.036597 118.129951  L 219.242734 118.213155  L 215.100202 122.047765  L 216.447852 116.566101  L 217.10497 117.580933  L 220.172972 112.374848  L 221.104599 112.923866  " style="fill:#1a1a1a;"/>
    <path clip-path="url(#p3cd6d27cb6)" d="M 282.959548 164.257166  L 281.578017 170.648309  L 282.749208 170.348307  L 280.021406 175.29036  L 279.578349 169.662883  L 280.521064 170.419834  L 281.902595 164.028691  L 282.959548 164.257166  " style="fill:#1a1a1a;"/>
   </g>
   <g id="patch_3">
    <path d="M 50.71 189.889714  L 50.71 25.110286  " style="fill:none;stroke:#cccccc;stroke-linecap:square;stroke-linejoin:miter;"/>
   </g>
   <g id="patch_4">
    <path d="M 411.165 189.889714  L 411.165 25.110286  " style="fill:none;stroke:#cccccc;stroke-linecap:square;stroke-linejoin:miter;"/>
   </g>
   <g id="patch_5">
    <path d="M 50.71 189.889714  L 411.165 189.889714  " style="fill:none;stroke:#cccccc;stroke-linecap:square;stroke-linejoin:miter;"/>
   </g>
   <g id="patch_6">
    <path d="M 50.71 25.110286  L 411.165 25.110286  " style="fill:none;stroke:#cccccc;stroke-linecap:square;stroke-linejoin:miter;"/>
   </g>
   <g id="text_18">
    <!-- Measurements -->
    <defs>
     <path d="M 9.8125 72.90625  L 24.515625 72.90625  L 43.109375 23.296875  L 61.8125 72.90625  L 76.515625 72.90625  L 76.515625 0  L 66.890625 0  L 66.890625 64.015625  L 48.09375 14.015625  L 38.1875 14.015625  L 19.390625 64.015625  L 19.390625 0  L 9.8125 0  z " id="DejaVuSans-4d"/>
     <path d="M 56.203125 29.59375  L 56.203125 25.203125  L 14.890625 25.203125  Q 15.484375 15.921875 20.484375 11.0625  Q 25.484375 6.203125 34.421875 6.203125  Q 39.59375 6.203125 44.453125 7.46875  Q 49.3125 8.734375 54.109375 11.28125  L 54.109375 2.78125  Q 49.265625 0.734375 44.1875 -0.34375  Q 39.109375 -1.421875 33.890625 -1.421875  Q 20.796875 -1.421875 13.15625 6.1875  Q 5.515625 13.8125 5.515625 26.8125  Q 5.515625 40.234375 12.765625 48.109375  Q 20.015625 56 32.328125 56  Q 43.359375 56 49.78125 48.890625  Q 56.203125 41.796875 56.203125 29.59375  z M 47.21875 32.234375  Q 47.125 39.59375 43.09375 43.984375  Q 39.0625 48.390625 32.421875 48.390625  Q 24.90625 48.390625 20.390625 44.140625  Q 15.875 39.890625 15.1875 32.171875  z " id="DejaVuSans-65"/>
     <path d="M 34.28125 27.484375  Q 23.390625 27.484375 19.1875 25  Q 14.984375 22.515625 14.984375 16.5  Q 14.984375 11.71875 18.140625 8.90625  Q 21.296875 6.109375 26.703125 6.109375  Q 34.1875 6.109375 38.703125 11.40625  Q 43.21875 16.703125 43.21875 25.484375  L 43.21875 27.484375  z M 52.203125 31.203125  L 52.203125 0  L 43.21875 0  L 43.21875 8.296875  Q 40.140625 3.328125 35.546875 0.953125  Q 30.953125 -1.421875 24.3125 -1.421875  Q 15.921875 -1.421875 10.953125 3.296875  Q 6 8.015625 6 15.921875  Q 6 25.140625 12.171875 29.828125  Q 18.359375 34.515625 30.609375 34.515625  L 43.21875 34.515625  L 43.21875 35.40625  Q 43.21875 41.609375 39.140625 45  Q 35.0625 48.390625 27.6875 48.390625  Q 23 48.390625 18.546875 47.265625  Q 14.109375 46.140625 10.015625 43.890625  L 10.015625 52.203125  Q 14.9375 54.109375 19.578125 55.046875  Q 24.21875 56 28.609375 56  Q 40.484375 56 46.34375 49.84375  Q 52.203125 43.703125 52.203125 31.203125  z " id="DejaVuSans-61"/>
     <path d="M 44.28125 53.078125  L 44.28125 44.578125  Q 40.484375 46.53125 36.375 47.5  Q 32.28125 48.484375 27.875 48.484375  Q 21.1875 48.484375 17.84375 46.4375  Q 14.5 44.390625 14.5 40.28125  Q 14.5 37.15625 16.890625 35.375  Q 19.28125 33.59375 26.515625 31.984375  L 29.59375 31.296875  Q 39.15625 29.25 43.1875 25.515625  Q 47.21875 21.78125 47.21875 15.09375  Q 47.21875 7.46875 41.1875 3.015625  Q 35.15625 -1.421875 24.609375 -1.421875  Q 20.21875 -1.421875 15.453125 -0.5625  Q 10.6875 0.296875 5.421875 2  L 5.421875 11.28125  Q 10.40625 8.6875 15.234375 7.390625  Q 20.0625 6.109375 24.8125 6.109375  Q 31.15625 6.109375 34.5625 8.28125  Q 37.984375 10.453125 37.984375 14.40625  Q 37.984375 18.0625 35.515625 20.015625  Q 33.0625 21.96875 24.703125 23.78125  L 21.578125 24.515625  Q 13.234375 26.265625 9.515625 29.90625  Q 5.8125 33.546875 5.8125 39.890625  Q 5.8125 47.609375 11.28125 51.796875  Q 16.75 56 26.8125 56  Q 31.78125 56 36.171875 55.265625  Q 40.578125 54.546875 44.28125 53.078125  z " id="DejaVuSans-73"/>
     <path d="M 8.5 21.578125  L 8.5 54.6875  L 17.484375 54.6875  L 17.484375 21.921875  Q 17.484375 14.15625 20.5 10.265625  Q 23.53125 6.390625 29.59375 6.390625  Q 36.859375 6.390625 41.078125 11.03125  Q 45.3125 15.671875 45.3125 23.6875  L 45.3125 54.6875  L 54.296875 54.6875  L 54.296875 0  L 45.3125 0  L 45.3125 8.40625  Q 42.046875 3.421875 37.71875 1  Q 33.40625 -1.421875 27.6875 -1.421875  Q 18.265625 -1.421875 13.375 4.4375  Q 8.5 10.296875 8.5 21.578125  z M 31.109375 56  z " id="DejaVuSans-75"/>
     <path d="M 41.109375 46.296875  Q 39.59375 47.171875 37.8125 47.578125  Q 36.03125 48 33.890625 48  Q 26.265625 48 22.1875 43.046875  Q 18.109375 38.09375 18.109375 28.8125  L 18.109375 0  L 9.078125 0  L 9.078125 54.6875  L 18.109375 54.6875  L 18.109375 46.1875  Q 20.953125 51.171875 25.484375 53.578125  Q 30.03125 56 36.53125 56  Q 37.453125 56 38.578125 55.875  Q 39.703125 55.765625 41.0625 55.515625  z " id="DejaVuSans-72"/>
     <path d="M 52 44.1875  Q 55.375 50.25 60.0625 53.125  Q 64.75 56 71.09375 56  Q 79.640625 56 84.28125 50.015625  Q 88.921875 44.046875 88.921875 33.015625  L 88.921875 0  L 79.890625 0  L 79.890625 32.71875  Q 79.890625 40.578125 77.09375 44.375  Q 74.3125 48.1875 68.609375 48.1875  Q 61.625 48.1875 57.5625 43.546875  Q 53.515625 38.921875 53.515625 30.90625  L 53.515625 0  L 44.484375 0  L 44.484375 32.71875  Q 44.484375 40.625 41.703125 44.40625  Q 38.921875 48.1875 33.109375 48.1875  Q 26.21875 48.1875 22.15625 43.53125  Q 18.109375 38.875 18.109375 30.90625  L 18.109375 0  L 9.078125 0  L 9.078125 54.6875  L 18.109375 54.6875  L 18.109375 46.1875  Q 21.1875 51.21875 25.484375 53.609375  Q 29.78125 56 35.6875 56  Q 41.65625 56 45.828125 52.96875  Q 50 49.953125 52 44.1875  z " id="DejaVuSans-6d"/>
     <path d="M 54.890625 33.015625  L 54.890625 0  L 45.90625 0  L 45.90625 32.71875  Q 45.90625 40.484375 42.875 44.328125  Q 39.84375 48.1875 33.796875 48.1875  Q 26.515625 48.1875 22.3125 43.546875  Q 18.109375 38.921875 18.109375 30.90625  L 18.109375 0  L 9.078125 0  L 9.078125 54.6875  L 18.109375 54.6875  L 18.109375 46.1875  Q 21.34375 51.125 25.703125 53.5625  Q 30.078125 56 35.796875 56  Q 45.21875 56 50.046875 50.171875  Q 54.890625 44.34375 54.890625 33.015625  z " id="DejaVuSans-6e"/>
     <path d="M 18.3125 70.21875  L 18.3125 54.6875  L 36.8125 54.6875  L 36.8125 47.703125  L 18.3125 47.703125  L 18.3125 18.015625  Q 18.3125 11.328125 20.140625 9.421875  Q 21.96875 7.515625 27.59375 7.515625  L 36.8125 7.515625  L 36.8125 0  L 27.59375 0  Q 17.1875 0 13.234375 3.875  Q 9.28125 7.765625 9.28125 18.015625  L 9.28125 47.703125  L 2.6875 47.703125  L 2.6875 54.6875  L 9.28125 54.6875  L 9.28125 70.21875  z " id="DejaVuSans-74"/>
    </defs>
    <g style="fill:#262626;" transform="translate(186.490625 19.110286)scale(0.12 -0.12)">
     <use xlink:href="#DejaVuSans-4d"/>
     <use x="86.279297" xlink:href="#DejaVuSans-65"/>
     <use x="147.802734" xlink:href="#DejaVuSans-61"/>
     <use x="209.082031" xlink:href="#DejaVuSans-73"/>
     <use x="261.181641" xlink:href="#DejaVuSans-75"/>
     <use x="324.560547" xlink:href="#DejaVuSans-72"/>
     <use x="365.642578" xlink:href="#DejaVuSans-65"/>
     <use x="427.166016" xlink:href="#DejaVuSans-6d"/>
     <use x="524.578125" xlink:href="#DejaVuSans-65"/>
     <use x="586.101562" xlink:href="#DejaVuSans-6e"/>
     <use x="649.480469" xlink:href="#DejaVuSans-74"/>
     <use x="688.689453" xlink:href="#DejaVuSans-73"/>
    </g>
   </g>
  </g>
 </g>
 <defs>
  <clipPath id="p3cd6d27cb6">
   <rect height="164.779429" width="360.455" x="50.71" y="25.110286"/>
  </clipPath>
 </defs>
</svg>