<?xml version="1.0" encoding="UTF-8" standalone="no"?>
<!DOCTYPE svg PUBLIC "-//W3C//DTD SVG 1.1//EN"
 "http://www.w3.org/Graphics/SVG/1.1/DTD/svg11.dtd">
<!-- Generated by graphviz version 2.40.1 (20161225.0304)
 -->
<!-- Title: %3 Pages: 1 -->
<svg width="371pt" height="98pt"
 viewBox="0.00 0.00 371.47 98.00" xmlns="http://www.w3.org/2000/svg" xmlns:xlink="http://www.w3.org/1999/xlink">
<g id="graph0" class="graph" transform="scale(1 1) rotate(0) translate(4 94)">
<title>%3</title>
<polygon fill="#ffffff" stroke="transparent" points="-4,4 -4,-94 367.4673,-94 367.4673,4 -4,4"/>
<g id="clust1" class="cluster">
<title>cluster_model</title>
<polygon fill="none" stroke="#000000" stroke-dasharray="5,2" points="158.6779,-8 158.6779,-82 272.6779,-82 272.6779,-8 158.6779,-8"/>
</g>
<!-- input -->
<g id="node1" class="node">
<title>input</title>
<ellipse fill="none" stroke="#000000" cx="61.6779" cy="-45" rx="61.8563" ry="18"/>
<text text-anchor="middle" x="61.6779" y="-40.8" font-family="Times,serif" font-size="14.00" fill="#000000">Measurements</text>
</g>
<!-- model -->
<g id="node2" class="node">
<title>model</title>
<polygon fill="#d3d3d3" stroke="#000000" points="265.1134,-74 166.2423,-74 166.2423,-16 265.1134,-16 265.1134,-74"/>
<text text-anchor="middle" x="215.6779" y="-40.8" font-family="Times,serif" font-size="14.00" fill="#000000">Estimator</text>
</g>
<!-- input&#45;&gt;model -->
<g id="edge1" class="edge">
<title>input&#45;&gt;model</title>
<path fill="none" stroke="#000000" d="M123.6388,-45C134.5576,-45 145.4764,-45 156.3951,-45"/>
<polygon fill="#000000" stroke="#000000" points="156.4226,-48.5001 166.4226,-45 156.4226,-41.5001 156.4226,-48.5001"/>
</g>
<!-- output -->
<g id="node3" class="node">
<title>output</title>
<ellipse fill="none" stroke="#000000" cx="335.6779" cy="-45" rx="27.5804" ry="18"/>
<text text-anchor="middle" x="335.6779" y="-40.8" font-family="Times,serif" font-size="14.00" fill="#000000">State</text>
</g>
<!-- model&#45;&gt;output -->
<g id="edge2" class="edge">
<title>model&#45;&gt;output</title>
<path fill="none" stroke="#000000" d="M264.8966,-45C275.8338,-45 286.771,-45 297.7081,-45"/>
<polygon fill="#000000" stroke="#000000" points="297.7525,-48.5001 307.7525,-45 297.7524,-41.5001 297.7525,-48.5001"/>
</g>
<!-- output&#45;&gt;model -->
<g id="edge3" class="edge">
<title>output:s&#45;&gt;model:s</title>
<path fill="none" stroke="#000000" d="M335.6779,-27C335.6779,-3.6734 244.6214,7.6803 221.1458,-7.4804"/>
<polygon fill="#000000" stroke="#000000" points="218.1337,-5.6937 215.6779,-16 224.0248,-9.4747 218.1337,-5.6937"/>
</g>
</g>
</svg>
