<?xml version="1.0" encoding="utf-8" standalone="no"?>
<!DOCTYPE svg PUBLIC "-//W3C//DTD SVG 1.1//EN"
  "http://www.w3.org/Graphics/SVG/1.1/DTD/svg11.dtd">
<!-- Created with matplotlib (http://matplotlib.org/) -->
<svg height="216pt" version="1.1" viewBox="0 0 432 216" width="432pt" xmlns="http://www.w3.org/2000/svg" xmlns:xlink="http://www.w3.org/1999/xlink">
 <defs>
  <style type="text/css">
*{stroke-linecap:butt;stroke-linejoin:round;stroke-miterlimit:100000;}
  </style>
 </defs>
 <g id="figure_1">
  <g id="patch_1">
   <path d="M 0 216 
L 432 216 
L 432 0 
L 0 0 
z
" style="fill:#ffffff;"/>
  </g>
  <g id="axes_1">
   <g id="patch_2">
    <path d="M 39.8725 191.609714 
L 412.00875 191.609714 
L 412.00875 21.490286 
L 39.8725 21.490286 
z
" style="fill:#ffffff;"/>
   </g>
   <g id="matplotlib.axis_1">
    <g id="xtick_1">
     <g id="line2d_1">
      <path clip-path="url(#p5ab914e729)" d="M 39.8725 191.609714 
L 39.8725 21.490286 
" style="fill:none;stroke:#cccccc;stroke-linecap:round;"/>
     </g>
     <g id="line2d_2">
      <defs>
       <path d="M 0 0 
L 0 0 
" id="m1ad250ffe8" style="stroke:#262626;"/>
      </defs>
      <g>
       <use style="fill:#262626;stroke:#262626;" x="39.8725" xlink:href="#m1ad250ffe8" y="191.609714286"/>
      </g>
     </g>
     <g id="line2d_3">
      <g>
       <use style="fill:#262626;stroke:#262626;" x="39.8725" xlink:href="#m1ad250ffe8" y="21.4902857143"/>
      </g>
     </g>
     <g id="text_1">
      <!-- −0.5 -->
      <defs>
       <path d="M 4.15625 18.75 
L 13.375 19.53125 
Q 14.40625 12.796875 18.140625 9.390625 
Q 21.875 6 27.15625 6 
Q 33.5 6 37.890625 10.78125 
Q 42.28125 15.578125 42.28125 23.484375 
Q 42.28125 31 38.0625 35.34375 
Q 33.84375 39.703125 27 39.703125 
Q 22.75 39.703125 19.328125 37.765625 
Q 15.921875 35.84375 13.96875 32.765625 
L 5.71875 33.84375 
L 12.640625 70.609375 
L 48.25 70.609375 
L 48.25 62.203125 
L 19.671875 62.203125 
L 15.828125 42.96875 
Q 22.265625 47.46875 29.34375 47.46875 
Q 38.71875 47.46875 45.15625 40.96875 
Q 51.609375 34.46875 51.609375 24.265625 
Q 51.609375 14.546875 45.953125 7.46875 
Q 39.0625 -1.21875 27.15625 -1.21875 
Q 17.390625 -1.21875 11.203125 4.25 
Q 5.03125 9.71875 4.15625 18.75 
" id="ArialMT-35"/>
       <path d="M 9.078125 0 
L 9.078125 10.015625 
L 19.09375 10.015625 
L 19.09375 0 
z
" id="ArialMT-2e"/>
       <path d="M 4.15625 35.296875 
Q 4.15625 48 6.765625 55.734375 
Q 9.375 63.484375 14.515625 67.671875 
Q 19.671875 71.875 27.484375 71.875 
Q 33.25 71.875 37.59375 69.546875 
Q 41.9375 67.234375 44.765625 62.859375 
Q 47.609375 58.5 49.21875 52.21875 
Q 50.828125 45.953125 50.828125 35.296875 
Q 50.828125 22.703125 48.234375 14.96875 
Q 45.65625 7.234375 40.5 3 
Q 35.359375 -1.21875 27.484375 -1.21875 
Q 17.140625 -1.21875 11.234375 6.203125 
Q 4.15625 15.140625 4.15625 35.296875 
M 13.1875 35.296875 
Q 13.1875 17.671875 17.3125 11.828125 
Q 21.4375 6 27.484375 6 
Q 33.546875 6 37.671875 11.859375 
Q 41.796875 17.71875 41.796875 35.296875 
Q 41.796875 52.984375 37.671875 58.78125 
Q 33.546875 64.59375 27.390625 64.59375 
Q 21.34375 64.59375 17.71875 59.46875 
Q 13.1875 52.9375 13.1875 35.296875 
" id="ArialMT-30"/>
       <path d="M 52.828125 31.203125 
L 5.5625 31.203125 
L 5.5625 39.40625 
L 52.828125 39.40625 
z
" id="ArialMT-2212"/>
      </defs>
      <g style="fill:#262626;" transform="translate(30.0021875 205.767526786)scale(0.1 -0.1)">
       <use xlink:href="#ArialMT-2212"/>
       <use x="58.3984375" xlink:href="#ArialMT-30"/>
       <use x="114.013671875" xlink:href="#ArialMT-2e"/>
       <use x="141.796875" xlink:href="#ArialMT-35"/>
      </g>
     </g>
    </g>
    <g id="xtick_2">
     <g id="line2d_4">
      <path clip-path="url(#p5ab914e729)" d="M 93.034821 191.609714 
L 93.034821 21.490286 
" style="fill:none;stroke:#cccccc;stroke-linecap:round;"/>
     </g>
     <g id="line2d_5">
      <g>
       <use style="fill:#262626;stroke:#262626;" x="93.0348214286" xlink:href="#m1ad250ffe8" y="191.609714286"/>
      </g>
     </g>
     <g id="line2d_6">
      <g>
       <use style="fill:#262626;stroke:#262626;" x="93.0348214286" xlink:href="#m1ad250ffe8" y="21.4902857143"/>
      </g>
     </g>
     <g id="text_2">
      <!-- 0.0 -->
      <g style="fill:#262626;" transform="translate(86.0848214286 205.767526786)scale(0.1 -0.1)">
       <use xlink:href="#ArialMT-30"/>
       <use x="55.615234375" xlink:href="#ArialMT-2e"/>
       <use x="83.3984375" xlink:href="#ArialMT-30"/>
      </g>
     </g>
    </g>
    <g id="xtick_3">
     <g id="line2d_7">
      <path clip-path="url(#p5ab914e729)" d="M 146.197143 191.609714 
L 146.197143 21.490286 
" style="fill:none;stroke:#cccccc;stroke-linecap:round;"/>
     </g>
     <g id="line2d_8">
      <g>
       <use style="fill:#262626;stroke:#262626;" x="146.197142857" xlink:href="#m1ad250ffe8" y="191.609714286"/>
      </g>
     </g>
     <g id="line2d_9">
      <g>
       <use style="fill:#262626;stroke:#262626;" x="146.197142857" xlink:href="#m1ad250ffe8" y="21.4902857143"/>
      </g>
     </g>
     <g id="text_3">
      <!-- 0.5 -->
      <g style="fill:#262626;" transform="translate(139.247142857 205.767526786)scale(0.1 -0.1)">
       <use xlink:href="#ArialMT-30"/>
       <use x="55.615234375" xlink:href="#ArialMT-2e"/>
       <use x="83.3984375" xlink:href="#ArialMT-35"/>
      </g>
     </g>
    </g>
    <g id="xtick_4">
     <g id="line2d_10">
      <path clip-path="url(#p5ab914e729)" d="M 199.359464 191.609714 
L 199.359464 21.490286 
" style="fill:none;stroke:#cccccc;stroke-linecap:round;"/>
     </g>
     <g id="line2d_11">
      <g>
       <use style="fill:#262626;stroke:#262626;" x="199.359464286" xlink:href="#m1ad250ffe8" y="191.609714286"/>
      </g>
     </g>
     <g id="line2d_12">
      <g>
       <use style="fill:#262626;stroke:#262626;" x="199.359464286" xlink:href="#m1ad250ffe8" y="21.4902857143"/>
      </g>
     </g>
     <g id="text_4">
      <!-- 1.0 -->
      <defs>
       <path d="M 37.25 0 
L 28.46875 0 
L 28.46875 56 
Q 25.296875 52.984375 20.140625 49.953125 
Q 14.984375 46.921875 10.890625 45.40625 
L 10.890625 53.90625 
Q 18.265625 57.375 23.78125 62.296875 
Q 29.296875 67.234375 31.59375 71.875 
L 37.25 71.875 
z
" id="ArialMT-31"/>
      </defs>
      <g style="fill:#262626;" transform="translate(192.409464286 205.767526786)scale(0.1 -0.1)">
       <use xlink:href="#ArialMT-31"/>
       <use x="55.615234375" xlink:href="#ArialMT-2e"/>
       <use x="83.3984375" xlink:href="#ArialMT-30"/>
      </g>
     </g>
    </g>
    <g id="xtick_5">
     <g id="line2d_13">
      <path clip-path="url(#p5ab914e729)" d="M 252.521786 191.609714 
L 252.521786 21.490286 
" style="fill:none;stroke:#cccccc;stroke-linecap:round;"/>
     </g>
     <g id="line2d_14">
      <g>
       <use style="fill:#262626;stroke:#262626;" x="252.521785714" xlink:href="#m1ad250ffe8" y="191.609714286"/>
      </g>
     </g>
     <g id="line2d_15">
      <g>
       <use style="fill:#262626;stroke:#262626;" x="252.521785714" xlink:href="#m1ad250ffe8" y="21.4902857143"/>
      </g>
     </g>
     <g id="text_5">
      <!-- 1.5 -->
      <g style="fill:#262626;" transform="translate(245.571785714 205.767526786)scale(0.1 -0.1)">
       <use xlink:href="#ArialMT-31"/>
       <use x="55.615234375" xlink:href="#ArialMT-2e"/>
       <use x="83.3984375" xlink:href="#ArialMT-35"/>
      </g>
     </g>
    </g>
    <g id="xtick_6">
     <g id="line2d_16">
      <path clip-path="url(#p5ab914e729)" d="M 305.684107 191.609714 
L 305.684107 21.490286 
" style="fill:none;stroke:#cccccc;stroke-linecap:round;"/>
     </g>
     <g id="line2d_17">
      <g>
       <use style="fill:#262626;stroke:#262626;" x="305.684107143" xlink:href="#m1ad250ffe8" y="191.609714286"/>
      </g>
     </g>
     <g id="line2d_18">
      <g>
       <use style="fill:#262626;stroke:#262626;" x="305.684107143" xlink:href="#m1ad250ffe8" y="21.4902857143"/>
      </g>
     </g>
     <g id="text_6">
      <!-- 2.0 -->
      <defs>
       <path d="M 50.34375 8.453125 
L 50.34375 0 
L 3.03125 0 
Q 2.9375 3.171875 4.046875 6.109375 
Q 5.859375 10.9375 9.828125 15.625 
Q 13.8125 20.3125 21.34375 26.46875 
Q 33.015625 36.03125 37.109375 41.625 
Q 41.21875 47.21875 41.21875 52.203125 
Q 41.21875 57.421875 37.46875 61 
Q 33.734375 64.59375 27.734375 64.59375 
Q 21.390625 64.59375 17.578125 60.78125 
Q 13.765625 56.984375 13.71875 50.25 
L 4.6875 51.171875 
Q 5.609375 61.28125 11.65625 66.578125 
Q 17.71875 71.875 27.9375 71.875 
Q 38.234375 71.875 44.234375 66.15625 
Q 50.25 60.453125 50.25 52 
Q 50.25 47.703125 48.484375 43.546875 
Q 46.734375 39.40625 42.65625 34.8125 
Q 38.578125 30.21875 29.109375 22.21875 
Q 21.1875 15.578125 18.9375 13.203125 
Q 16.703125 10.84375 15.234375 8.453125 
z
" id="ArialMT-32"/>
      </defs>
      <g style="fill:#262626;" transform="translate(298.734107143 205.767526786)scale(0.1 -0.1)">
       <use xlink:href="#ArialMT-32"/>
       <use x="55.615234375" xlink:href="#ArialMT-2e"/>
       <use x="83.3984375" xlink:href="#ArialMT-30"/>
      </g>
     </g>
    </g>
    <g id="xtick_7">
     <g id="line2d_19">
      <path clip-path="url(#p5ab914e729)" d="M 358.846429 191.609714 
L 358.846429 21.490286 
" style="fill:none;stroke:#cccccc;stroke-linecap:round;"/>
     </g>
     <g id="line2d_20">
      <g>
       <use style="fill:#262626;stroke:#262626;" x="358.846428571" xlink:href="#m1ad250ffe8" y="191.609714286"/>
      </g>
     </g>
     <g id="line2d_21">
      <g>
       <use style="fill:#262626;stroke:#262626;" x="358.846428571" xlink:href="#m1ad250ffe8" y="21.4902857143"/>
      </g>
     </g>
     <g id="text_7">
      <!-- 2.5 -->
      <g style="fill:#262626;" transform="translate(351.896428571 205.767526786)scale(0.1 -0.1)">
       <use xlink:href="#ArialMT-32"/>
       <use x="55.615234375" xlink:href="#ArialMT-2e"/>
       <use x="83.3984375" xlink:href="#ArialMT-35"/>
      </g>
     </g>
    </g>
    <g id="xtick_8">
     <g id="line2d_22">
      <path clip-path="url(#p5ab914e729)" d="M 412.00875 191.609714 
L 412.00875 21.490286 
" style="fill:none;stroke:#cccccc;stroke-linecap:round;"/>
     </g>
     <g id="line2d_23">
      <g>
       <use style="fill:#262626;stroke:#262626;" x="412.00875" xlink:href="#m1ad250ffe8" y="191.609714286"/>
      </g>
     </g>
     <g id="line2d_24">
      <g>
       <use style="fill:#262626;stroke:#262626;" x="412.00875" xlink:href="#m1ad250ffe8" y="21.4902857143"/>
      </g>
     </g>
     <g id="text_8">
      <!-- 3.0 -->
      <defs>
       <path d="M 4.203125 18.890625 
L 12.984375 20.0625 
Q 14.5 12.59375 18.140625 9.296875 
Q 21.78125 6 27 6 
Q 33.203125 6 37.46875 10.296875 
Q 41.75 14.59375 41.75 20.953125 
Q 41.75 27 37.796875 30.921875 
Q 33.84375 34.859375 27.734375 34.859375 
Q 25.25 34.859375 21.53125 33.890625 
L 22.515625 41.609375 
Q 23.390625 41.5 23.921875 41.5 
Q 29.546875 41.5 34.03125 44.421875 
Q 38.53125 47.359375 38.53125 53.46875 
Q 38.53125 58.296875 35.25 61.46875 
Q 31.984375 64.65625 26.8125 64.65625 
Q 21.6875 64.65625 18.265625 61.421875 
Q 14.84375 58.203125 13.875 51.765625 
L 5.078125 53.328125 
Q 6.6875 62.15625 12.390625 67.015625 
Q 18.109375 71.875 26.609375 71.875 
Q 32.46875 71.875 37.390625 69.359375 
Q 42.328125 66.84375 44.9375 62.5 
Q 47.5625 58.15625 47.5625 53.265625 
Q 47.5625 48.640625 45.0625 44.828125 
Q 42.578125 41.015625 37.703125 38.765625 
Q 44.046875 37.3125 47.5625 32.6875 
Q 51.078125 28.078125 51.078125 21.140625 
Q 51.078125 11.765625 44.234375 5.25 
Q 37.40625 -1.265625 26.953125 -1.265625 
Q 17.53125 -1.265625 11.296875 4.34375 
Q 5.078125 9.96875 4.203125 18.890625 
" id="ArialMT-33"/>
      </defs>
      <g style="fill:#262626;" transform="translate(405.05875 205.767526786)scale(0.1 -0.1)">
       <use xlink:href="#ArialMT-33"/>
       <use x="55.615234375" xlink:href="#ArialMT-2e"/>
       <use x="83.3984375" xlink:href="#ArialMT-30"/>
      </g>
     </g>
    </g>
   </g>
   <g id="matplotlib.axis_2">
    <g id="ytick_1">
     <g id="line2d_25">
      <path clip-path="url(#p5ab914e729)" d="M 39.8725 170.344786 
L 412.00875 170.344786 
" style="fill:none;stroke:#cccccc;stroke-linecap:round;"/>
     </g>
     <g id="line2d_26">
      <g>
       <use style="fill:#262626;stroke:#262626;" x="39.8725" xlink:href="#m1ad250ffe8" y="170.344785714"/>
      </g>
     </g>
     <g id="line2d_27">
      <g>
       <use style="fill:#262626;stroke:#262626;" x="412.00875" xlink:href="#m1ad250ffe8" y="170.344785714"/>
      </g>
     </g>
     <g id="text_9">
      <!-- −2.0 -->
      <g style="fill:#262626;" transform="translate(13.131875 172.929941964)scale(0.1 -0.1)">
       <use xlink:href="#ArialMT-2212"/>
       <use x="58.3984375" xlink:href="#ArialMT-32"/>
       <use x="114.013671875" xlink:href="#ArialMT-2e"/>
       <use x="141.796875" xlink:href="#ArialMT-30"/>
      </g>
     </g>
    </g>
    <g id="ytick_2">
     <g id="line2d_28">
      <path clip-path="url(#p5ab914e729)" d="M 39.8725 117.182464 
L 412.00875 117.182464 
" style="fill:none;stroke:#cccccc;stroke-linecap:round;"/>
     </g>
     <g id="line2d_29">
      <g>
       <use style="fill:#262626;stroke:#262626;" x="39.8725" xlink:href="#m1ad250ffe8" y="117.182464286"/>
      </g>
     </g>
     <g id="line2d_30">
      <g>
       <use style="fill:#262626;stroke:#262626;" x="412.00875" xlink:href="#m1ad250ffe8" y="117.182464286"/>
      </g>
     </g>
     <g id="text_10">
      <!-- −1.5 -->
      <g style="fill:#262626;" transform="translate(13.131875 119.767620536)scale(0.1 -0.1)">
       <use xlink:href="#ArialMT-2212"/>
       <use x="58.3984375" xlink:href="#ArialMT-31"/>
       <use x="114.013671875" xlink:href="#ArialMT-2e"/>
       <use x="141.796875" xlink:href="#ArialMT-35"/>
      </g>
     </g>
    </g>
    <g id="ytick_3">
     <g id="line2d_31">
      <path clip-path="url(#p5ab914e729)" d="M 39.8725 64.020143 
L 412.00875 64.020143 
" style="fill:none;stroke:#cccccc;stroke-linecap:round;"/>
     </g>
     <g id="line2d_32">
      <g>
       <use style="fill:#262626;stroke:#262626;" x="39.8725" xlink:href="#m1ad250ffe8" y="64.0201428571"/>
      </g>
     </g>
     <g id="line2d_33">
      <g>
       <use style="fill:#262626;stroke:#262626;" x="412.00875" xlink:href="#m1ad250ffe8" y="64.0201428571"/>
      </g>
     </g>
     <g id="text_11">
      <!-- −1.0 -->
      <g style="fill:#262626;" transform="translate(13.131875 66.6052991071)scale(0.1 -0.1)">
       <use xlink:href="#ArialMT-2212"/>
       <use x="58.3984375" xlink:href="#ArialMT-31"/>
       <use x="114.013671875" xlink:href="#ArialMT-2e"/>
       <use x="141.796875" xlink:href="#ArialMT-30"/>
      </g>
     </g>
    </g>
   </g>
   <g id="Quiver_1">
    <path clip-path="url(#p5ab914e729)" d="M 290.280145 133.253049 
L 288.573561 140.880019 
L 289.784917 140.579061 
L 286.931835 145.66074 
L 286.516511 139.847733 
L 287.484092 140.636243 
L 289.190676 133.009273 
L 290.280145 133.253049 
" style="fill:#1a1a1a;"/>
    <path clip-path="url(#p5ab914e729)" d="M 194.600473 143.730841 
L 194.84772 147.933389 
L 195.929417 147.310581 
L 194.585534 152.981341 
L 192.585972 147.507284 
L 193.733238 147.998957 
L 193.485991 143.796409 
L 194.600473 143.730841 
" style="fill:#1a1a1a;"/>
    <path clip-path="url(#p5ab914e729)" d="M 162.679595 101.39716 
L 161.440305 105.445563 
L 162.671208 105.238592 
L 159.436018 110.085971 
L 159.468674 104.258238 
L 160.372793 105.118778 
L 161.612084 101.070375 
L 162.679595 101.39716 
" style="fill:#1a1a1a;"/>
    <path clip-path="url(#p5ab914e729)" d="M 183.885606 48.299243 
L 183.657809 48.774082 
L 184.835283 48.754837 
L 181.132798 52.819831 
L 181.986253 47.388055 
L 182.708132 48.318488 
L 182.935929 47.843649 
L 183.885606 48.299243 
" style="fill:#1a1a1a;"/>
    <path clip-path="url(#p5ab914e729)" d="M 120.14983 58.867002 
L 118.149735 65.413941 
L 119.380522 65.206275 
L 116.148069 70.05548 
L 116.177435 64.22773 
L 117.08204 65.087759 
L 119.082134 58.54082 
L 120.14983 58.867002 
" style="fill:#1a1a1a;"/>
    <path clip-path="url(#p5ab914e729)" d="M 226.498477 175.680853 
L 226.333932 180.308588 
L 227.469471 179.790406 
L 225.597565 185.309419 
L 224.12236 179.671395 
L 225.218229 180.268917 
L 225.382773 175.641183 
L 226.498477 175.680853 
" style="fill:#1a1a1a;"/>
    <path clip-path="url(#p5ab914e729)" d="M 152.067569 165.095343 
L 151.331937 171.199339 
L 152.507115 170.778724 
L 150.176637 176.120298 
L 149.18195 170.377987 
L 150.223549 171.06576 
L 150.959181 164.961764 
L 152.067569 165.095343 
" style="fill:#1a1a1a;"/>
    <path clip-path="url(#p5ab914e729)" d="M 279.648549 165.146493 
L 278.222247 171.744753 
L 279.431392 171.435029 
L 276.615191 176.537239 
L 276.157775 170.727393 
L 277.131042 171.508875 
L 278.557344 164.910614 
L 279.648549 165.146493 
" style="fill:#1a1a1a;"/>
    <path clip-path="url(#p5ab914e729)" d="M 88.227906 58.932358 
L 85.943636 64.025066 
L 87.190718 63.972644 
L 83.37829 68.38047 
L 84.134816 62.601958 
L 84.925002 63.56817 
L 87.209272 58.475463 
L 88.227906 58.932358 
" style="fill:#1a1a1a;"/>
    <path clip-path="url(#p5ab914e729)" d="M 258.379576 101.369071 
L 255.935854 111.150219 
L 257.154273 110.879267 
L 254.176569 115.88894 
L 253.904924 110.06745 
L 254.852737 110.879614 
L 257.29646 101.098465 
L 258.379576 101.369071 
" style="fill:#1a1a1a;"/>
    <path clip-path="url(#p5ab914e729)" d="M 88.241886 48.265746 
L 85.973821 54.374199 
L 87.214715 54.239502 
L 83.701825 58.889571 
L 84.074933 53.073702 
L 84.927227 53.985599 
L 87.195292 47.877147 
L 88.241886 48.265746 
" style="fill:#1a1a1a;"/>
    <path clip-path="url(#p5ab914e729)" d="M 141.409502 58.883307 
L 139.681296 63.975463 
L 140.917875 63.805664 
L 137.538135 68.55339 
L 137.746326 62.729285 
L 138.624113 63.616669 
L 140.352319 58.524514 
L 141.409502 58.883307 
" style="fill:#1a1a1a;"/>
    <path clip-path="url(#p5ab914e729)" d="M 226.43968 112.116305 
L 223.449539 118.083551 
L 224.697721 118.084641 
L 220.69983 122.324973 
L 221.703391 116.584206 
L 222.451429 117.583406 
L 225.44157 111.61616 
L 226.43968 112.116305 
" style="fill:#1a1a1a;"/>
    <path clip-path="url(#p5ab914e729)" d="M 205.103549 48.429964 
L 204.622562 49.00397 
L 205.836783 49.293153 
L 200.968053 52.496122 
L 203.269671 47.142048 
L 203.766858 48.286935 
L 204.247844 47.712929 
L 205.103549 48.429964 
" style="fill:#1a1a1a;"/>
    <path clip-path="url(#p5ab914e729)" d="M 130.80137 143.840226 
L 129.926887 150.152468 
L 131.109334 149.752746 
L 128.684556 155.05218 
L 127.791793 149.293142 
L 128.821039 149.999267 
L 129.695523 143.687024 
L 130.80137 143.840226 
" style="fill:#1a1a1a;"/>
    <path clip-path="url(#p5ab914e729)" d="M 173.335647 90.632297 
L 172.893656 98.580565 
L 174.039336 98.085208 
L 172.057376 103.565662 
L 170.695276 97.89925 
L 171.77897 98.518579 
L 172.22096 90.570311 
L 173.335647 90.632297 
" style="fill:#1a1a1a;"/>
    <path clip-path="url(#p5ab914e729)" d="M 226.495591 154.456133 
L 226.01231 158.922956 
L 227.182285 158.488078 
L 224.916953 163.857604 
L 223.852491 158.127816 
L 224.902379 158.802869 
L 225.385659 154.336046 
L 226.495591 154.456133 
" style="fill:#1a1a1a;"/>
    <path clip-path="url(#p5ab914e729)" d="M 152.065319 101.317131 
L 150.914868 108.934188 
L 152.102121 108.548971 
L 149.612652 113.818324 
L 148.790454 108.048789 
L 149.81098 108.767461 
L 150.961431 101.150404 
L 152.065319 101.317131 
" style="fill:#1a1a1a;"/>
    <path clip-path="url(#p5ab914e729)" d="M 98.877548 80.1543 
L 96.898669 85.77203 
L 98.137119 85.616457 
L 94.703027 90.325019 
L 94.978152 84.503692 
L 95.84568 85.401108 
L 97.824559 79.783378 
L 98.877548 80.1543 
" style="fill:#1a1a1a;"/>
    <path clip-path="url(#p5ab914e729)" d="M 152.030866 37.648254 
L 151.179213 39.754235 
L 152.423468 39.655288 
L 148.778273 44.202385 
L 149.31852 38.399655 
L 150.144231 39.335691 
L 150.995884 37.22971 
L 152.030866 37.648254 
" style="fill:#1a1a1a;"/>
    <path clip-path="url(#p5ab914e729)" d="M 290.287344 154.47953 
L 288.862029 163.907555 
L 290.049335 163.522503 
L 287.559133 168.79151 
L 286.737738 163.021861 
L 287.758163 163.740675 
L 289.183478 154.312649 
L 290.287344 154.47953 
" style="fill:#1a1a1a;"/>
    <path clip-path="url(#p5ab914e729)" d="M 88.2651 80.082496 
L 86.697521 87.620091 
L 87.9042 87.300894 
L 85.128099 92.425033 
L 84.625134 86.618953 
L 85.6045 87.392778 
L 87.172078 79.855182 
L 88.2651 80.082496 
" style="fill:#1a1a1a;"/>
    <path clip-path="url(#p5ab914e729)" d="M 226.453765 69.116649 
L 228.703253 74.370023 
L 229.509807 73.417431 
L 230.167646 79.208008 
L 226.430967 74.735786 
L 227.676973 74.809474 
L 225.427485 69.556101 
L 226.453765 69.116649 
" style="fill:#1a1a1a;"/>
    <path clip-path="url(#p5ab914e729)" d="M 183.915305 26.769108 
L 183.952715 27.273646 
L 184.92438 26.694289 
L 183.784864 31.851892 
L 181.897156 26.918747 
L 182.94364 27.348465 
L 182.90623 26.843927 
L 183.915305 26.769108 
" style="fill:#1a1a1a;"/>
    <path clip-path="url(#p5ab914e729)" d="M 332.760003 58.962424 
L 329.677345 64.86194 
L 330.925329 64.88423 
L 326.855995 69.056047 
L 327.956916 63.333153 
L 328.687874 64.344914 
L 331.770532 58.445398 
L 332.760003 58.962424 
" style="fill:#1a1a1a;"/>
    <path clip-path="url(#p5ab914e729)" d="M 269.009514 101.378809 
L 266.921646 109.138179 
L 268.14475 108.889229 
L 265.077245 113.844423 
L 264.91056 108.018983 
L 265.843582 108.848097 
L 267.93145 101.088727 
L 269.009514 101.378809 
" style="fill:#1a1a1a;"/>
    <path clip-path="url(#p5ab914e729)" d="M 109.534849 143.850953 
L 108.451979 150.687503 
L 109.641969 150.310827 
L 107.114699 155.562155 
L 106.333982 149.786861 
L 107.349317 150.512847 
L 108.432187 143.676297 
L 109.534849 143.850953 
" style="fill:#1a1a1a;"/>
    <path clip-path="url(#p5ab914e729)" d="M 300.912311 133.254374 
L 299.167739 140.963021 
L 300.379825 140.665012 
L 297.514384 145.739732 
L 297.113208 139.925732 
L 298.078867 140.716595 
L 299.823439 133.007947 
L 300.912311 133.254374 
" style="fill:#1a1a1a;"/>
    <path clip-path="url(#p5ab914e729)" d="M 194.552733 90.82934 
L 188.285184 104.832927 
L 189.532223 104.779498 
L 185.723357 109.190402 
L 186.475215 103.41128 
L 187.266182 104.376854 
L 193.533731 90.373267 
L 194.552733 90.82934 
" style="fill:#1a1a1a;"/>
    <path clip-path="url(#p5ab914e729)" d="M 141.435379 101.298245 
L 140.474355 109.562582 
L 141.647768 109.137067 
L 139.339597 114.488318 
L 138.320959 108.750207 
L 139.365419 109.433629 
L 140.326443 101.169291 
L 141.435379 101.298245 
" style="fill:#1a1a1a;"/>
    <path clip-path="url(#p5ab914e729)" d="M 130.78382 165.186565 
L 129.826532 168.430041 
L 131.05529 168.210691 
L 127.869057 173.090389 
L 127.843051 167.262623 
L 128.755786 168.114018 
L 129.713073 164.870542 
L 130.78382 165.186565 
" style="fill:#1a1a1a;"/>
    <path clip-path="url(#p5ab914e729)" d="M 152.065645 143.844806 
L 151.263665 149.300644 
L 152.449385 148.910736 
L 149.980769 154.18989 
L 149.135767 148.423651 
L 150.159126 149.138282 
L 150.961105 143.682444 
L 152.065645 143.844806 
" style="fill:#1a1a1a;"/>
    <path clip-path="url(#p5ab914e729)" d="M 237.130557 37.410313 
L 237.426423 43.163397 
L 238.512689 42.548591 
L 237.126977 48.209275 
L 235.167883 42.720606 
L 236.311487 43.220735 
L 236.015622 37.467651 
L 237.130557 37.410313 
" style="fill:#1a1a1a;"/>
    <path clip-path="url(#p5ab914e729)" d="M 194.60032 122.533978 
L 194.45035 124.902002 
L 195.599808 124.415476 
L 193.57573 129.880515 
L 192.257278 124.203788 
L 193.336173 124.831439 
L 193.486144 122.463415 
L 194.60032 122.533978 
" style="fill:#1a1a1a;"/>
    <path clip-path="url(#p5ab914e729)" d="M 247.762764 37.472281 
L 247.45748 42.580858 
L 248.605199 42.090245 
L 246.600584 47.562453 
L 245.261937 41.890454 
L 246.343059 42.514261 
L 246.648343 37.405684 
L 247.762764 37.472281 
" style="fill:#1a1a1a;"/>
    <path clip-path="url(#p5ab914e729)" d="M 226.42501 79.691417 
L 229.438954 84.95383 
L 230.130302 83.914601 
L 231.451367 89.59072 
L 227.22399 85.579133 
L 228.470183 85.508674 
L 225.45624 80.246261 
L 226.42501 79.691417 
" style="fill:#1a1a1a;"/>
    <path clip-path="url(#p5ab914e729)" d="M 194.601411 101.228417 
L 194.896711 132.033715 
L 196.007718 131.464834 
L 194.386689 137.062674 
L 192.658646 131.496939 
L 193.780354 132.044416 
L 193.485053 101.239119 
L 194.601411 101.228417 
" style="fill:#1a1a1a;"/>
    <path clip-path="url(#p5ab914e729)" d="M 290.233888 48.322668 
L 287.403142 53.939473 
L 288.651318 53.943439 
L 284.643669 58.174549 
L 285.660454 52.436109 
L 286.406187 53.43703 
L 289.236933 47.820225 
L 290.233888 48.322668 
" style="fill:#1a1a1a;"/>
    <path clip-path="url(#p5ab914e729)" d="M 237.120254 154.506554 
L 235.82126 160.940857 
L 237.026055 160.614622 
L 234.279911 165.754878 
L 233.743065 159.951833 
L 234.72693 160.719928 
L 236.025924 154.285624 
L 237.120254 154.506554 
" style="fill:#1a1a1a;"/>
    <path clip-path="url(#p5ab914e729)" d="M 183.821265 80.347104 
L 179.406642 85.137906 
L 180.605901 85.483937 
L 175.591763 88.454116 
L 178.142918 83.21435 
L 178.585648 84.381376 
L 183.000271 79.590575 
L 183.821265 80.347104 
" style="fill:#1a1a1a;"/>
    <path clip-path="url(#p5ab914e729)" d="M 204.980632 69.275141 
L 205.041866 69.580077 
L 205.590504 69.152674 
L 205.288034 72.385734 
L 203.760889 69.520076 
L 204.431994 69.702545 
L 204.370761 69.397609 
L 204.980632 69.275141 
" style="fill:#1a1a1a;"/>
    <path clip-path="url(#p5ab914e729)" d="M 173.197924 37.571229 
L 173.065677 37.99085 
L 174.037166 37.835724 
L 171.455831 41.63519 
L 171.519441 37.04224 
L 172.226435 37.726356 
L 172.358683 37.306735 
L 173.197924 37.571229 
" style="fill:#1a1a1a;"/>
    <path clip-path="url(#p5ab914e729)" d="M 183.94806 101.082409 
L 187.438066 113.471207 
L 188.361292 112.631198 
L 188.263003 118.458193 
L 185.13754 113.53935 
L 186.363482 113.773924 
L 182.873476 101.385127 
L 183.94806 101.082409 
" style="fill:#1a1a1a;"/>
    <path clip-path="url(#p5ab914e729)" d="M 311.520308 69.539413 
L 309.003453 75.984952 
L 310.246428 75.871058 
L 306.656145 80.461636 
L 307.126614 74.652833 
L 307.963514 75.578877 
L 310.48037 69.133337 
L 311.520308 69.539413 
" style="fill:#1a1a1a;"/>
    <path clip-path="url(#p5ab914e729)" d="M 194.581143 26.955664 
L 194.050417 28.869784 
L 195.275384 28.630165 
L 192.170196 33.561833 
L 192.047921 27.735291 
L 192.974596 28.571493 
L 193.505322 26.657372 
L 194.581143 26.955664 
" style="fill:#1a1a1a;"/>
    <path clip-path="url(#p5ab914e729)" d="M 130.797313 90.702977 
L 130.265306 93.574936 
L 131.464713 93.229415 
L 128.801382 98.413064 
L 128.171512 92.619377 
L 129.167573 93.37159 
L 129.69958 90.499631 
L 130.797313 90.702977 
" style="fill:#1a1a1a;"/>
    <path clip-path="url(#p5ab914e729)" d="M 279.650391 143.872697 
L 277.939288 152.460892 
L 279.143249 152.131592 
L 276.410193 157.27882 
L 275.858583 151.477159 
L 276.844399 152.242748 
L 278.555502 143.654553 
L 279.650391 143.872697 
" style="fill:#1a1a1a;"/>
    <path clip-path="url(#p5ab914e729)" d="M 173.336453 133.138984 
L 173.247642 139.474825 
L 174.371765 138.932323 
L 172.619079 144.490347 
L 171.022868 138.88538 
L 172.131343 139.459177 
L 172.220154 133.123337 
L 173.336453 133.138984 
" style="fill:#1a1a1a;"/>
    <path clip-path="url(#p5ab914e729)" d="M 290.284082 143.866346 
L 288.503956 153.374704 
L 289.70402 153.031474 
L 287.030799 158.210029 
L 286.41199 152.41515 
L 287.406613 153.169263 
L 289.186739 143.660904 
L 290.284082 143.866346 
" style="fill:#1a1a1a;"/>
    <path clip-path="url(#p5ab914e729)" d="M 130.702976 26.96218 
L 130.547314 27.41671 
L 131.612036 27.273504 
L 128.691825 31.351815 
L 128.884857 26.339532 
L 129.638255 27.105385 
L 129.793917 26.650856 
L 130.702976 26.96218 
" style="fill:#1a1a1a;"/>
    <path clip-path="url(#p5ab914e729)" d="M 109.486436 37.681191 
L 108.650026 39.417902 
L 109.898072 39.399401 
L 105.96723 43.701961 
L 106.88056 37.946149 
L 107.644189 38.933485 
L 108.480599 37.196774 
L 109.486436 37.681191 
" style="fill:#1a1a1a;"/>
    <path clip-path="url(#p5ab914e729)" d="M 258.349347 122.722604 
L 255.152203 130.023792 
L 256.398769 129.960279 
L 252.625704 134.401847 
L 253.330794 128.616832 
L 254.129545 129.575977 
L 257.326689 122.274789 
L 258.349347 122.722604 
" style="fill:#1a1a1a;"/>
    <path clip-path="url(#p5ab914e729)" d="M 279.645813 80.098792 
L 277.406773 89.452165 
L 278.622459 89.169205 
L 275.694327 94.208013 
L 275.365259 88.389486 
L 276.321039 89.192259 
L 278.56008 79.838886 
L 279.645813 80.098792 
" style="fill:#1a1a1a;"/>
    <path clip-path="url(#p5ab914e729)" d="M 269.012302 80.103092 
L 266.946197 88.441523 
L 268.164089 88.168208 
L 265.196105 93.183646 
L 264.913172 87.362693 
L 265.862558 88.173018 
L 267.928663 79.834587 
L 269.012302 80.103092 
" style="fill:#1a1a1a;"/>
    <path clip-path="url(#p5ab914e729)" d="M 162.702507 165.069944 
L 162.188763 171.979433 
L 163.343489 171.505546 
L 161.259584 176.948053 
L 160.003482 171.257205 
L 161.075428 171.896653 
L 161.589172 164.987163 
L 162.702507 165.069944 
" style="fill:#1a1a1a;"/>
    <path clip-path="url(#p5ab914e729)" d="M 141.437562 111.907837 
L 140.905783 119.022717 
L 142.060692 118.549275 
L 139.974685 123.990977 
L 138.720781 118.299644 
L 139.79248 118.939506 
L 140.324259 111.824627 
L 141.437562 111.907837 
" style="fill:#1a1a1a;"/>
    <path clip-path="url(#p5ab914e729)" d="M 173.334042 122.446288 
L 173.875693 128.18995 
L 174.934762 127.529394 
L 173.791631 133.244007 
L 171.60033 127.843845 
L 172.764216 128.294767 
L 172.222565 122.551105 
L 173.334042 122.446288 
" style="fill:#1a1a1a;"/>
    <path clip-path="url(#p5ab914e729)" d="M 300.912025 111.990703 
L 298.897236 120.798784 
L 300.110007 120.503575 
L 297.23285 125.571663 
L 296.845107 119.756751 
L 297.808936 120.549843 
L 299.823725 111.741762 
L 300.912025 111.990703 
" style="fill:#1a1a1a;"/>
    <path clip-path="url(#p5ab914e729)" d="M 130.765833 48.280977 
L 128.995915 52.65138 
L 130.240219 52.553054 
L 126.592754 57.098331 
L 127.135898 51.295871 
L 127.961141 52.232319 
L 129.73106 47.861916 
L 130.765833 48.280977 
" style="fill:#1a1a1a;"/>
    <path clip-path="url(#p5ab914e729)" d="M 152.049952 69.490249 
L 150.02268 76.559568 
L 151.249708 76.33074 
L 148.101233 81.234886 
L 148.030247 75.407493 
L 148.949526 76.251819 
L 150.976798 69.182501 
L 152.049952 69.490249 
" style="fill:#1a1a1a;"/>
    <path clip-path="url(#p5ab914e729)" d="M 215.835689 133.31366 
L 214.457133 137.29848 
L 215.694689 137.135951 
L 212.287109 141.863735 
L 212.529519 136.040954 
L 213.402076 136.933481 
L 214.780632 132.948661 
L 215.835689 133.31366 
" style="fill:#1a1a1a;"/>
    <path clip-path="url(#p5ab914e729)" d="M 98.906594 143.818092 
L 98.18249 151.203689 
L 99.348038 150.757082 
L 97.136748 156.149088 
L 96.014794 150.430281 
L 97.071408 151.094755 
L 97.795513 143.709158 
L 98.906594 143.818092 
" style="fill:#1a1a1a;"/>
    <path clip-path="url(#p5ab914e729)" d="M 109.534524 122.588052 
L 108.344916 129.923709 
L 109.536284 129.551414 
L 106.989711 134.793408 
L 106.230247 129.015281 
L 107.242904 129.744998 
L 108.432512 122.409341 
L 109.534524 122.588052 
" style="fill:#1a1a1a;"/>
    <path clip-path="url(#p5ab914e729)" d="M 300.870923 27.048457 
L 299.457506 29.987289 
L 300.705541 29.968118 
L 296.777008 34.272787 
L 297.687251 28.516486 
L 298.451409 29.503412 
L 299.864827 26.564579 
L 300.870923 27.048457 
" style="fill:#1a1a1a;"/>
   </g>
   <g id="patch_3">
    <path d="M 39.8725 191.609714 
L 39.8725 21.490286 
" style="fill:none;stroke:#cccccc;stroke-linecap:square;stroke-linejoin:miter;"/>
   </g>
   <g id="patch_4">
    <path d="M 39.8725 191.609714 
L 412.00875 191.609714 
" style="fill:none;stroke:#cccccc;stroke-linecap:square;stroke-linejoin:miter;"/>
   </g>
   <g id="patch_5">
    <path d="M 39.8725 21.490286 
L 412.00875 21.490286 
" style="fill:none;stroke:#cccccc;stroke-linecap:square;stroke-linejoin:miter;"/>
   </g>
   <g id="patch_6">
    <path d="M 412.00875 191.609714 
L 412.00875 21.490286 
" style="fill:none;stroke:#cccccc;stroke-linecap:square;stroke-linejoin:miter;"/>
   </g>
   <g id="text_12">
    <!-- Measurements -->
    <defs>
     <path d="M 6.59375 0 
L 6.59375 51.859375 
L 14.5 51.859375 
L 14.5 44.484375 
Q 20.21875 53.03125 31 53.03125 
Q 35.6875 53.03125 39.625 51.34375 
Q 43.5625 49.65625 45.515625 46.921875 
Q 47.46875 44.1875 48.25 40.4375 
Q 48.734375 37.984375 48.734375 31.890625 
L 48.734375 0 
L 39.9375 0 
L 39.9375 31.546875 
Q 39.9375 36.921875 38.90625 39.578125 
Q 37.890625 42.234375 35.28125 43.8125 
Q 32.671875 45.40625 29.15625 45.40625 
Q 23.53125 45.40625 19.453125 41.84375 
Q 15.375 38.28125 15.375 28.328125 
L 15.375 0 
z
" id="ArialMT-6e"/>
     <path d="M 40.4375 6.390625 
Q 35.546875 2.25 31.03125 0.53125 
Q 26.515625 -1.171875 21.34375 -1.171875 
Q 12.796875 -1.171875 8.203125 3 
Q 3.609375 7.171875 3.609375 13.671875 
Q 3.609375 17.484375 5.34375 20.625 
Q 7.078125 23.78125 9.890625 25.6875 
Q 12.703125 27.59375 16.21875 28.5625 
Q 18.796875 29.25 24.03125 29.890625 
Q 34.671875 31.15625 39.703125 32.90625 
Q 39.75 34.71875 39.75 35.203125 
Q 39.75 40.578125 37.25 42.78125 
Q 33.890625 45.75 27.25 45.75 
Q 21.046875 45.75 18.09375 43.578125 
Q 15.140625 41.40625 13.71875 35.890625 
L 5.125 37.0625 
Q 6.296875 42.578125 8.984375 45.96875 
Q 11.671875 49.359375 16.75 51.1875 
Q 21.828125 53.03125 28.515625 53.03125 
Q 35.15625 53.03125 39.296875 51.46875 
Q 43.453125 49.90625 45.40625 47.53125 
Q 47.359375 45.171875 48.140625 41.546875 
Q 48.578125 39.3125 48.578125 33.453125 
L 48.578125 21.734375 
Q 48.578125 9.46875 49.140625 6.21875 
Q 49.703125 2.984375 51.375 0 
L 42.1875 0 
Q 40.828125 2.734375 40.4375 6.390625 
M 39.703125 26.03125 
Q 34.90625 24.078125 25.34375 22.703125 
Q 19.921875 21.921875 17.671875 20.9375 
Q 15.4375 19.96875 14.203125 18.09375 
Q 12.984375 16.21875 12.984375 13.921875 
Q 12.984375 10.40625 15.640625 8.0625 
Q 18.3125 5.71875 23.4375 5.71875 
Q 28.515625 5.71875 32.46875 7.9375 
Q 36.421875 10.15625 38.28125 14.015625 
Q 39.703125 17 39.703125 22.796875 
z
" id="ArialMT-61"/>
     <path d="M 3.078125 15.484375 
L 11.765625 16.84375 
Q 12.5 11.625 15.84375 8.84375 
Q 19.1875 6.0625 25.203125 6.0625 
Q 31.25 6.0625 34.171875 8.515625 
Q 37.109375 10.984375 37.109375 14.3125 
Q 37.109375 17.28125 34.515625 19 
Q 32.71875 20.171875 25.53125 21.96875 
Q 15.875 24.421875 12.140625 26.203125 
Q 8.40625 27.984375 6.46875 31.125 
Q 4.546875 34.28125 4.546875 38.09375 
Q 4.546875 41.546875 6.125 44.5 
Q 7.71875 47.46875 10.453125 49.421875 
Q 12.5 50.921875 16.03125 51.96875 
Q 19.578125 53.03125 23.640625 53.03125 
Q 29.734375 53.03125 34.34375 51.265625 
Q 38.96875 49.515625 41.15625 46.5 
Q 43.359375 43.5 44.1875 38.484375 
L 35.59375 37.3125 
Q 35.015625 41.3125 32.203125 43.546875 
Q 29.390625 45.796875 24.265625 45.796875 
Q 18.21875 45.796875 15.625 43.796875 
Q 13.03125 41.796875 13.03125 39.109375 
Q 13.03125 37.40625 14.109375 36.03125 
Q 15.1875 34.625 17.484375 33.6875 
Q 18.796875 33.203125 25.25 31.453125 
Q 34.578125 28.953125 38.25 27.359375 
Q 41.9375 25.78125 44.03125 22.75 
Q 46.140625 19.734375 46.140625 15.234375 
Q 46.140625 10.84375 43.578125 6.953125 
Q 41.015625 3.078125 36.171875 0.953125 
Q 31.34375 -1.171875 25.25 -1.171875 
Q 15.140625 -1.171875 9.84375 3.03125 
Q 4.546875 7.234375 3.078125 15.484375 
" id="ArialMT-73"/>
     <path d="M 6.59375 0 
L 6.59375 51.859375 
L 14.453125 51.859375 
L 14.453125 44.578125 
Q 16.890625 48.390625 20.9375 50.703125 
Q 25 53.03125 30.171875 53.03125 
Q 35.9375 53.03125 39.625 50.640625 
Q 43.3125 48.25 44.828125 43.953125 
Q 50.984375 53.03125 60.84375 53.03125 
Q 68.5625 53.03125 72.703125 48.75 
Q 76.859375 44.484375 76.859375 35.59375 
L 76.859375 0 
L 68.109375 0 
L 68.109375 32.671875 
Q 68.109375 37.9375 67.25 40.25 
Q 66.40625 42.578125 64.15625 43.984375 
Q 61.921875 45.40625 58.890625 45.40625 
Q 53.421875 45.40625 49.796875 41.765625 
Q 46.1875 38.140625 46.1875 30.125 
L 46.1875 0 
L 37.40625 0 
L 37.40625 33.6875 
Q 37.40625 39.546875 35.25 42.46875 
Q 33.109375 45.40625 28.21875 45.40625 
Q 24.515625 45.40625 21.359375 43.453125 
Q 18.21875 41.5 16.796875 37.734375 
Q 15.375 33.984375 15.375 26.90625 
L 15.375 0 
z
" id="ArialMT-6d"/>
     <path d="M 40.578125 0 
L 40.578125 7.625 
Q 34.515625 -1.171875 24.125 -1.171875 
Q 19.53125 -1.171875 15.546875 0.578125 
Q 11.578125 2.34375 9.640625 5 
Q 7.71875 7.671875 6.9375 11.53125 
Q 6.390625 14.109375 6.390625 19.734375 
L 6.390625 51.859375 
L 15.1875 51.859375 
L 15.1875 23.09375 
Q 15.1875 16.21875 15.71875 13.8125 
Q 16.546875 10.359375 19.234375 8.375 
Q 21.921875 6.390625 25.875 6.390625 
Q 29.828125 6.390625 33.296875 8.421875 
Q 36.765625 10.453125 38.203125 13.9375 
Q 39.65625 17.4375 39.65625 24.078125 
L 39.65625 51.859375 
L 48.4375 51.859375 
L 48.4375 0 
z
" id="ArialMT-75"/>
     <path d="M 42.09375 16.703125 
L 51.171875 15.578125 
Q 49.03125 7.625 43.21875 3.21875 
Q 37.40625 -1.171875 28.375 -1.171875 
Q 17 -1.171875 10.328125 5.828125 
Q 3.65625 12.84375 3.65625 25.484375 
Q 3.65625 38.578125 10.390625 45.796875 
Q 17.140625 53.03125 27.875 53.03125 
Q 38.28125 53.03125 44.875 45.953125 
Q 51.46875 38.875 51.46875 26.03125 
Q 51.46875 25.25 51.421875 23.6875 
L 12.75 23.6875 
Q 13.234375 15.140625 17.578125 10.59375 
Q 21.921875 6.0625 28.421875 6.0625 
Q 33.25 6.0625 36.671875 8.59375 
Q 40.09375 11.140625 42.09375 16.703125 
M 13.234375 30.90625 
L 42.1875 30.90625 
Q 41.609375 37.453125 38.875 40.71875 
Q 34.671875 45.796875 27.984375 45.796875 
Q 21.921875 45.796875 17.796875 41.75 
Q 13.671875 37.703125 13.234375 30.90625 
" id="ArialMT-65"/>
     <path d="M 6.5 0 
L 6.5 51.859375 
L 14.40625 51.859375 
L 14.40625 44 
Q 17.4375 49.515625 20 51.265625 
Q 22.5625 53.03125 25.640625 53.03125 
Q 30.078125 53.03125 34.671875 50.203125 
L 31.640625 42.046875 
Q 28.421875 43.953125 25.203125 43.953125 
Q 22.3125 43.953125 20.015625 42.21875 
Q 17.71875 40.484375 16.75 37.40625 
Q 15.28125 32.71875 15.28125 27.15625 
L 15.28125 0 
z
" id="ArialMT-72"/>
     <path d="M 25.78125 7.859375 
L 27.046875 0.09375 
Q 23.34375 -0.6875 20.40625 -0.6875 
Q 15.625 -0.6875 12.984375 0.828125 
Q 10.359375 2.34375 9.28125 4.8125 
Q 8.203125 7.28125 8.203125 15.1875 
L 8.203125 45.015625 
L 1.765625 45.015625 
L 1.765625 51.859375 
L 8.203125 51.859375 
L 8.203125 64.703125 
L 16.9375 69.96875 
L 16.9375 51.859375 
L 25.78125 51.859375 
L 25.78125 45.015625 
L 16.9375 45.015625 
L 16.9375 14.703125 
Q 16.9375 10.9375 17.40625 9.859375 
Q 17.875 8.796875 18.921875 8.15625 
Q 19.96875 7.515625 21.921875 7.515625 
Q 23.390625 7.515625 25.78125 7.859375 
" id="ArialMT-74"/>
     <path d="M 7.421875 0 
L 7.421875 71.578125 
L 21.6875 71.578125 
L 38.625 20.90625 
Q 40.96875 13.8125 42.046875 10.296875 
Q 43.265625 14.203125 45.84375 21.78125 
L 62.984375 71.578125 
L 75.734375 71.578125 
L 75.734375 0 
L 66.609375 0 
L 66.609375 59.90625 
L 45.796875 0 
L 37.25 0 
L 16.546875 60.9375 
L 16.546875 0 
z
" id="ArialMT-4d"/>
    </defs>
    <g style="fill:#262626;" transform="translate(186.2609375 16.4902857143)scale(0.12 -0.12)">
     <use xlink:href="#ArialMT-4d"/>
     <use x="83.30078125" xlink:href="#ArialMT-65"/>
     <use x="138.916015625" xlink:href="#ArialMT-61"/>
     <use x="194.53125" xlink:href="#ArialMT-73"/>
     <use x="244.53125" xlink:href="#ArialMT-75"/>
     <use x="300.146484375" xlink:href="#ArialMT-72"/>
     <use x="333.447265625" xlink:href="#ArialMT-65"/>
     <use x="389.0625" xlink:href="#ArialMT-6d"/>
     <use x="472.36328125" xlink:href="#ArialMT-65"/>
     <use x="527.978515625" xlink:href="#ArialMT-6e"/>
     <use x="583.59375" xlink:href="#ArialMT-74"/>
     <use x="611.376953125" xlink:href="#ArialMT-73"/>
    </g>
   </g>
  </g>
 </g>
 <defs>
  <clipPath id="p5ab914e729">
   <rect height="170.119428571" width="372.13625" x="39.8725" y="21.4902857143"/>
  </clipPath>
 </defs>
</svg>
